<svg width="336" height="144" viewBox="0 0 336 144" fill="none" xmlns="http://www.w3.org/2000/svg">
<path d="M50.975 19H31.0823C21.7576 44.7983 0 107.585 0 109.139H17.0953C17.4061 107.274 24.2442 86.1378 24.2442 86.1378H56.5698C56.5698 86.1378 63.7188 107.274 64.0296 109.139H81.7465C81.7465 107.585 59.9889 44.7983 50.975 19ZM53.1508 74.0157H28.5957L38.5421 42.3117C39.1637 39.5143 40.407 36.0953 40.7179 34.2303H41.3395C41.6503 36.0953 42.5828 39.5143 43.5153 42.3117L53.1508 74.0157ZM109.41 95.4625V19.3108C109.41 19.3108 96.3552 19 84.2331 19.3108C84.2331 21.1758 83.9223 23.6623 83.9223 25.5273C83.9223 27.3922 83.9223 29.568 84.2331 31.4329L92.6253 32.3654V109.139H138.938V95.1517H109.41V95.4625ZM192.089 48.2174C192.089 59.7179 186.494 65.3127 176.237 65.3127H167.845V32.3654C170.642 32.3654 173.75 32.0546 177.48 32.0546C186.494 32.0546 192.089 37.0278 192.089 48.2174ZM209.806 48.2174C209.806 27.7031 196.751 19 175.926 19C165.358 19 153.547 19 141.735 19.6216C141.735 21.4866 141.425 23.9732 141.425 25.8381C141.425 27.7031 141.425 29.8788 141.735 31.7438L151.06 32.6762V109.139H167.845V79.2997H178.413C194.575 79.2997 209.806 69.6642 209.806 48.2174ZM223.171 109.139H240.577V19H223.171V109.139ZM321.391 101.057C328.54 93.2868 334.135 82.0971 334.135 65.9343C334.135 33.9195 318.283 19 294.039 19C271.038 19 253.943 34.852 253.943 66.2451C253.943 87.6919 262.335 105.409 274.146 112.247L282.228 96.395C276.944 91.111 271.97 84.2729 271.97 65.9343C271.97 41.6901 280.052 32.987 293.728 32.987C307.404 32.987 316.107 41.0685 316.107 65.9343C316.107 75.5698 314.242 83.6512 312.377 87.3811H312.067C312.067 87.3811 311.134 85.5162 309.891 83.3404L306.161 77.124C299.945 76.8131 293.728 76.8131 287.512 77.124L316.729 124.369C322.635 124.68 329.162 124.68 336 124.369L321.391 101.057Z" fill="#FF9400"/>
</svg>
