<svg width="336" height="144" viewBox="0 0 336 144" fill="none" xmlns="http://www.w3.org/2000/svg">
<path d="M22.008 110C12.88 110 5.712 108.718 0.616 106.153L0 105.874V46.2113L0.56 45.9325C5.32 43.4791 12.88 42.0851 21.224 42.0851C37.688 42.0851 47.544 48.832 47.544 60.1511C47.544 67.6229 42.784 72.2509 37.8 74.3698C43.232 76.7117 49.448 82.0646 49.448 90.3169C49.448 103.03 39.704 110 22.008 110ZM16.8 98.2348C18.2 98.6808 19.768 98.8481 21.616 98.8481C28.728 98.8481 31.864 96.0602 31.864 89.8151C31.864 83.6816 29.624 79.5554 18.76 79.5554H16.8V98.2348ZM16.8 70.1321H18.76C28.672 70.1321 30.632 66.8423 30.632 61.1548C30.632 55.3001 27.776 52.6794 21.336 52.6794C19.432 52.6794 18.088 52.7909 16.8 53.1255V70.1321ZM73.808 109.052H56.84V56.8613H73.808V109.052ZM65.296 51.3969C60.256 51.3969 56.336 47.9398 56.336 43.5349C56.336 39.1856 60.368 35.6728 65.296 35.6728C70.224 35.6728 74.256 39.1856 74.256 43.5349C74.256 47.9398 70.336 51.3969 65.296 51.3969ZM105.056 110C90.44 110 81.312 99.6288 81.312 82.901C81.312 66.2847 90.384 55.9134 104.944 55.9134C119.616 55.9134 128.744 66.2289 128.744 82.901C128.8 99.6288 119.672 110 105.056 110ZM105.056 67.1211C100.352 67.1211 98.224 71.9721 98.224 82.7894C98.224 93.3279 100.352 98.0675 105.056 98.0675C109.816 98.0675 111.888 93.4952 111.888 82.7894C111.888 71.9164 109.76 67.1211 105.056 67.1211ZM197.736 43.033H181.048L170.072 79.5554C169.736 80.6148 169.456 81.6742 169.232 82.5664C169.008 81.6742 168.728 80.6148 168.448 79.5554L158.032 43.033H141.232L134.064 109.052H149.016C149.016 109.052 152.376 71.6376 152.432 71.303C152.432 71.1357 152.432 70.9127 152.488 70.7454C152.544 71.0242 152.656 71.2473 152.712 71.5261C153.104 72.92 164.024 109.052 164.024 109.052H173.208C173.208 109.052 184.128 72.8643 184.52 71.5261C184.632 71.1915 184.744 70.8569 184.8 70.5224C184.8 70.8012 184.856 71.08 184.856 71.303C184.856 71.6376 188.16 109.052 188.16 109.052H205.016L197.736 43.033ZM288.96 110C272.496 110 262.64 100.019 262.64 83.2913C262.64 67.1211 272.104 56.3037 286.272 56.3037C288.96 56.3037 291.088 56.5825 292.712 56.8613V34H309.624V105.818L309.064 106.097C304.024 108.773 297.64 110 288.96 110ZM289.744 66.5635C282.856 66.5635 279.496 71.8606 279.496 82.6779C279.496 93.4395 282.688 98.6808 289.24 98.6808C290.808 98.6808 291.928 98.5693 292.712 98.2905V66.8423C291.816 66.6192 290.808 66.5635 289.744 66.5635ZM236.04 110C220.136 110 210.224 99.573 210.224 82.8452C210.224 66.2847 219.52 55.9692 234.416 55.9692C248.976 55.9692 257.096 64.9464 257.208 81.2839C257.208 82.1203 257.208 85.0756 257.152 85.9677L257.096 86.9714H226.184C227.528 95.1122 230.44 97.7887 237.72 97.956H238.224C242.536 97.956 247.464 96.8965 250.544 95.391L251.608 94.8335L255.696 105.874L254.8 106.32C249.76 108.773 243.6 110 236.04 110ZM225.68 77.325H241.304C240.968 66.675 235.704 66.675 233.912 66.675C228.816 66.6192 226.072 70.2436 225.68 77.325ZM325.808 54.854C320.208 54.854 315.616 50.3375 315.616 44.7058C315.616 39.0741 320.208 34.5576 325.808 34.5576C331.408 34.5576 336 39.0741 336 44.7058C336 50.3375 331.408 54.854 325.808 54.854ZM325.808 36.2304C321.104 36.2304 317.408 40.0778 317.408 44.65C317.408 49.2781 321.16 53.0697 325.808 53.0697C330.512 53.0697 334.208 49.2781 334.208 44.65C334.208 40.0778 330.512 36.2304 325.808 36.2304ZM327.88 50.3375L324.52 45.3192H324.24V50.3375H322.336V39.1299C323.12 38.6838 324.184 38.4607 325.36 38.4607C328.104 38.4607 329.56 40.022 329.56 41.8621C329.56 43.7021 328.272 44.8173 326.536 45.1519L330.232 50.3375H327.88ZM325.248 40.022C324.856 40.022 324.52 40.0778 324.24 40.1893V44.0367H324.968C326.592 44.0367 327.6 43.5349 327.6 41.9178C327.6 40.3566 326.312 40.022 325.248 40.022ZM236.04 110C220.136 110 210.224 99.573 210.224 82.8452C210.224 66.2847 219.52 55.9692 234.416 55.9692C248.976 55.9692 257.096 64.9464 257.208 81.2839C257.208 82.1203 257.208 85.0756 257.152 85.9677L257.096 86.9714H226.184C227.528 95.1122 230.44 97.7887 237.72 97.956H238.224C242.536 97.956 247.464 96.8965 250.544 95.391L251.608 94.8335L255.696 105.874L254.8 106.32C249.76 108.773 243.6 110 236.04 110ZM225.68 77.325H241.304C240.968 66.675 235.704 66.675 233.912 66.675C228.816 66.6192 226.072 70.2436 225.68 77.325Z" fill="#003B61"/>
</svg>
