<svg width="336" height="144" viewBox="0 0 336 144" fill="none" xmlns="http://www.w3.org/2000/svg">
<path d="M145.443 72.2142L147.507 57.2498H140.504L138.439 72.2142H145.443Z" fill="#009B91"/>
<path d="M63.8385 49.8043L334.673 49.7306L336 40H35.4577C15.2593 40 0 54.0061 0 71.2558C0 88.5055 15.2593 102.512 35.4577 102.512H54.8451L55.8771 94.9925C44.8197 93.4445 36.5634 81.7236 38.2589 69.7815C39.8806 58.4291 50.2747 49.8043 63.8385 49.8043Z" fill="#009B91"/>
<path d="M320.372 57.2498H300.026L293.687 102.512H305.407L307.472 87.5473H311.6L318.971 102.512H332.093L323.763 86.2941C329.586 84.23 333.715 79.5122 334.673 72.6565C336.074 62.7785 330.103 57.2498 320.372 57.2498ZM323.099 72.6565C322.583 75.9738 320.372 78.1115 316.17 78.1115H308.798L310.346 67.2015H317.718C321.92 67.2015 323.542 69.3393 323.099 72.6565Z" fill="#009B91"/>
<path d="M234.197 57.2498H222.329L215.989 102.512H246.36L247.761 92.2651H229.258L234.197 57.2498Z" fill="#009B91"/>
<path d="M251.742 102.512H284.104L285.504 92.2651H264.79L265.896 84.4512H284.841L286.242 74.4994H267.296L268.328 67.4226H289.043L290.443 57.2498H258.082L251.742 102.512Z" fill="#009B91"/>
<path d="M99.7383 57.2498H80.3509L74.0112 102.512H94.7993C104.235 102.512 110.427 98.015 111.607 89.8325C112.344 84.746 109.837 80.5442 105.709 79.1436C109.248 77.9641 112.418 74.4257 113.155 69.5604C114.26 61.4516 109.174 57.2498 99.7383 57.2498ZM100.402 88.4319C100.033 91.0119 97.8954 92.7811 94.5782 92.7811H86.6168L87.8699 84.0089H95.8313C99.1486 84.0089 100.77 85.7043 100.402 88.4319ZM101.802 71.0348C101.434 73.836 99.3697 75.1629 95.905 75.1629H89.1231L90.3026 66.9803H97.0845C100.549 66.9803 102.171 68.2335 101.802 71.0348Z" fill="#009B91"/>
<path d="M198.445 74.4257H182.743L185.176 57.2498H173.307L166.968 102.512H178.836L181.342 84.5986H197.044L194.538 102.512H206.406L212.746 57.2498H200.877L198.445 74.4257Z" fill="#009B91"/>
<path d="M148.318 82.9768C147.433 89.3902 143.968 92.7074 139.103 92.7074C134.164 92.7074 131.584 89.3902 132.469 82.9768L136.081 57.2498H124.286L120.527 84.0089C118.757 96.467 125.613 103.249 137.555 103.249C149.497 103.249 158.196 96.467 159.965 84.0826L163.725 57.2498H151.93L148.318 82.9768Z" fill="#009B91"/>
</svg>
