<svg width="336" height="144" viewBox="0 0 336 144" fill="none" xmlns="http://www.w3.org/2000/svg">
<path d="M244.524 18.242C244.201 18.5648 244.201 19.0963 244.524 19.419L334.581 109.286C334.904 109.609 335.435 109.609 335.758 109.286C336.081 108.963 336.081 108.432 335.758 108.09L245.701 18.242C245.378 17.9193 244.847 17.9193 244.524 18.242ZM248.928 51.4628L248.757 49.4696L241.221 47.6472L241.373 49.6025L248.928 51.4628ZM288.698 72.0977C288.11 70.598 286.971 69.402 285.49 68.7566L274.822 64.7891C273.929 64.5043 273.303 63.6691 273.322 62.7199C273.322 62.2264 273.512 61.7708 273.815 61.4101C274.138 61.9416 274.746 62.3023 275.448 62.3213C276.511 62.3592 277.403 61.5999 277.441 60.6318C277.46 59.6636 276.644 58.8663 275.581 58.8283H275.543V58.8094C273.379 58.7714 271.575 60.4989 271.537 62.682C271.518 64.2955 272.468 65.7383 273.929 66.3647L284.864 70.4461C285.87 70.9017 286.629 71.718 287.028 72.7431C287.426 73.7872 287.407 74.9452 286.971 75.9703C286.515 76.9954 285.699 77.7927 284.636 78.2103C283.592 78.6279 282.434 78.59 281.409 78.1533V78.1723C278.182 76.1791 266.317 68.8515 265.045 68.0732L269.601 61.0304C270.626 59.4928 271.158 57.9931 271.196 56.5693C271.196 55.9619 271.12 55.3544 270.949 54.7659C270.247 52.431 268.215 51.0072 267.114 50.3808C267.19 50.077 267.247 49.8303 267.247 49.6594C267.266 48.957 267.095 48.4065 266.754 47.875C266.127 46.9258 265.14 46.66 264.438 46.6031C263.223 46.5082 262.71 46.9448 262.349 47.4573H262.33C260.432 46.9828 259.122 46.66 258.458 46.5461L258.04 46.4702C256.56 46.1855 253.807 45.6729 252.516 45.597L251.947 45.559C251.947 45.559 251.301 46.736 251.073 47.3245C250.922 47.7041 250.808 47.9889 250.561 48.7102L250.314 49.4506L251.301 49.7353V49.7543C252.042 49.9821 252.459 50.7794 252.231 51.5388C252.004 52.2791 251.206 52.6967 250.447 52.4689V52.4879L249.422 52.1652C249.213 52.8676 248.757 54.614 249.593 55.9049C249.915 56.3795 250.523 56.968 251.681 57.1198C252.725 57.2527 253.408 57.3856 254.016 57.6893C254.433 57.9171 254.68 58.6385 254.794 59.1511L253.465 61.2202L246.555 56.7212L246.574 56.3795C246.612 54.1015 244.79 52.2032 242.512 52.1652C240.727 52.1462 239.152 53.2283 238.544 54.8988C238.393 55.3164 238.317 55.772 238.317 56.2276H238.336L243.746 61.7138L239.532 60.6318C239.095 58.8663 237.519 57.5375 235.602 57.5185C233.818 57.4805 232.223 58.5816 231.634 60.2521C231.464 60.6697 231.407 61.1253 231.388 61.5809C231.388 62.0175 231.464 62.5301 231.559 62.8528L249.004 71.4333L249.023 71.718C249.251 73.7113 249.839 74.7364 251.51 76.0842C253.048 77.3181 254.965 77.7737 255.25 77.8306C255.288 77.8496 261.837 79.672 266.317 80.9249C265.235 81.7602 264.438 82.7663 263.792 84.0572C263.185 83.9433 261.666 83.5826 260.47 83.2978C260.299 82.2917 259.692 81.3805 258.781 80.849C257.11 79.8618 254.946 80.4313 253.959 82.0829C253.389 83.0131 253.313 84.1331 253.693 85.1392L253.731 85.1202L265.88 92.6756L266.279 91.6315C266.298 91.5935 267.095 89.5623 268.994 88.2715C269.013 89.0118 269.07 89.7521 269.202 90.4545C269.867 93.9285 272.107 96.8329 275.866 99.1109L276.834 102.889C276.511 103.249 276.283 103.686 276.112 104.141C275.96 104.559 275.885 105.015 275.885 105.47C275.847 107.748 277.669 109.628 279.947 109.685C280.346 109.685 280.725 109.647 281.124 109.533C281.39 109.457 282.035 109.191 282.282 108.982L282.889 95.5231L282.567 95.2193C279.681 92.6376 278.276 90.0369 278.314 87.2653V87.2084C278.352 85.0063 279.302 82.6524 281.181 80.0517C282.529 80.5073 283.952 80.4693 285.3 79.9568C286.8 79.3683 287.977 78.2293 288.622 76.7486C289.249 75.2299 289.268 73.5974 288.698 72.0977ZM251.909 55.2215C251.434 55.1646 251.263 54.9937 251.168 54.8608C251.092 54.7279 251.035 54.5571 251.016 54.3862C252.364 54.3293 253.598 53.4371 254.016 52.0893C254.471 50.6655 253.883 49.1469 252.706 48.3496L253.01 47.5523C254.244 47.7041 256.142 48.0458 257.395 48.2736L256.996 49.5265C256.996 49.5265 257.471 49.9252 257.983 49.9442C258.686 49.9631 258.913 49.7733 258.913 49.7733L259.274 48.6533C259.882 48.7862 260.679 48.995 261.818 49.2797L262.084 49.3367C263.166 49.4696 263.602 48.8811 263.811 48.5963L263.868 48.5014L264.248 48.4824C264.874 48.5394 265.064 48.8241 265.14 48.9191C265.235 49.0709 265.33 49.2228 265.33 49.6404C265.311 49.9442 264.969 50.8174 264.627 51.0262C264.267 51.311 263.659 51.6147 262.729 51.6147C259.616 51.6527 258.097 54.0256 257.907 54.3293C257.907 54.3293 257.11 55.5442 256.066 57.1768C255.8 56.7212 255.44 56.3036 254.908 56.0188C254.054 55.5632 253.162 55.3734 251.909 55.2215ZM240.329 55.6012V55.5632C240.652 54.671 241.506 54.0635 242.474 54.0825C243.708 54.1015 244.676 55.1266 244.657 56.3415C244.657 56.5124 244.638 56.7022 244.581 56.8731L244.562 56.911C244.486 57.1958 244.448 57.3856 244.334 57.5375H244.315C244.315 57.5375 251.054 61.9226 252.345 62.7579L251.7 63.783L247.22 62.625L240.329 55.6012ZM250.675 65.5294C250.542 65.7193 249.498 67.2949 249.118 69.3641L233.286 61.5809C233.286 61.3531 233.343 61.1063 233.419 60.8785C233.742 59.9863 234.596 59.3978 235.545 59.3978C236.76 59.4168 237.747 60.4419 237.728 61.6569L237.69 62.0175L237.671 62.0745L250.732 65.4345L250.675 65.5294ZM255.705 75.9892L261.021 67.7885C261.286 67.3898 261.173 66.8393 260.755 66.5545C260.356 66.2888 259.787 66.4027 259.54 66.8203L253.997 75.3818C253.56 75.173 253.105 74.9072 252.687 74.5845L252.554 74.4706L257.509 66.9342C257.774 66.5166 257.661 65.9661 257.262 65.7003C256.863 65.4345 256.313 65.5484 256.028 65.9471L251.339 73.1038C251.111 72.6672 250.997 72.1736 250.922 71.4712L250.884 70.7688C250.922 68.5858 252.269 66.6115 252.288 66.5925L252.307 66.5735L259.559 55.3164L259.578 55.2974C259.616 55.2215 260.641 53.532 262.805 53.494C264.627 53.4751 265.71 52.7157 266.298 52.0893C267.171 52.6018 268.652 53.6839 269.145 55.3164C269.259 55.6961 269.316 56.1137 269.297 56.5314C269.278 57.5944 268.842 58.7524 268.025 59.9863C268.025 59.9863 267.285 61.1253 266.355 62.587L257.186 76.3689L255.705 75.9892ZM269.145 85.9175C267.152 86.9616 265.596 88.8789 265.007 89.942C263.735 89.1827 257.243 85.1012 255.288 83.8483C255.288 83.5446 255.364 83.2409 255.515 82.9751C255.99 82.1588 257.053 81.8931 257.85 82.3676C258.42 82.7093 258.762 83.3548 258.686 84.0192L258.553 84.7216L264.893 86.1074L265.178 85.405C265.899 83.6775 267 82.4436 268.652 81.5134L270.171 81.95C269.677 83.3738 269.335 84.6836 269.145 85.9175ZM276.397 87.1704C276.34 90.3976 277.859 93.4349 280.953 96.3014C280.934 96.9658 280.573 104.73 280.441 107.71L279.966 107.748C278.732 107.729 277.764 106.704 277.783 105.47C277.783 105.224 277.821 104.996 277.897 104.768C278.106 104.198 278.39 103.781 278.941 103.534L277.498 97.858L277.156 97.6682C272.866 95.1624 270.797 91.9922 270.873 87.8918C270.892 86.0314 271.386 83.9622 272.297 81.6842L272.695 80.6971L258.932 76.8435L263.792 69.5159C267.665 71.9078 278.163 78.3812 279.415 79.1595C277.46 82.007 276.435 84.6646 276.397 87.1704ZM289.363 25.6455L289.192 23.6523L281.655 21.8299L281.807 23.7852L289.363 25.6455ZM329.114 46.2804C328.525 44.7807 327.386 43.5848 325.925 42.9393L315.256 38.9718C314.345 38.6871 313.737 37.8518 313.756 36.9026C313.756 36.3901 313.946 35.9345 314.25 35.5928C314.573 36.1243 315.18 36.485 315.882 36.504C316.945 36.5419 317.838 35.7826 317.876 34.8145C317.895 33.8653 317.059 33.049 316.015 33.011H315.977V32.9921C313.794 32.9541 312.01 34.7006 311.972 36.8647C311.953 38.4782 312.921 39.94 314.364 40.5474L325.317 44.6288C326.304 45.0844 327.083 45.9007 327.462 46.9068C327.88 47.9509 327.861 49.1089 327.405 50.134C326.95 51.1781 326.133 51.9564 325.07 52.374C324.026 52.7917 322.868 52.7727 321.843 52.2981V52.3171C318.616 50.3238 306.751 43.0153 305.461 42.218C306.296 40.9271 310.036 35.1751 310.036 35.1751C311.061 33.6375 311.592 32.1378 311.611 30.7141C311.63 30.1066 311.535 29.4991 311.364 28.9107C310.662 26.5757 308.631 25.152 307.53 24.5255C307.606 24.2218 307.663 23.975 307.663 23.8041C307.682 23.1018 307.53 22.5512 307.169 22.0197C306.543 21.0705 305.555 20.8048 304.853 20.7478C303.638 20.6529 303.126 21.0895 302.746 21.6021H302.727C300.829 21.1275 299.538 20.8048 298.854 20.6909L298.494 20.615C297.013 20.3492 294.26 19.8366 292.97 19.7607L292.419 19.7227C292.419 19.7227 291.774 20.8997 291.546 21.4692C291.394 21.8489 291.28 22.1336 291.052 22.855L290.805 23.5953L291.774 23.8801C292.514 24.1079 292.932 24.9052 292.704 25.6645C292.476 26.4049 291.66 26.8225 290.919 26.5947V26.6137L289.913 26.3099C289.704 27.0123 289.249 28.7778 290.084 30.0497C290.388 30.5242 291.014 31.1127 292.153 31.2456C293.197 31.3785 293.881 31.5114 294.488 31.8341C294.925 32.0619 295.172 32.7832 295.267 33.2958L293.938 35.365L287.028 30.8659L287.047 30.5053C287.085 28.2273 285.262 26.3289 283.003 26.291C281.219 26.253 279.624 27.354 279.036 29.0246C278.884 29.4612 278.808 29.8978 278.789 30.3534H278.808L284.218 35.8396C282.51 35.4599 280.953 35.0802 279.928 34.7955C279.472 33.03 277.897 31.7012 275.979 31.6632C274.195 31.6253 272.619 32.7263 272.012 34.3968C271.86 34.8145 271.784 35.2701 271.765 35.7257C271.765 36.1623 271.86 36.6748 271.936 36.9975L289.382 45.578L289.401 45.8627C289.647 47.875 290.217 48.9001 291.887 50.2289C293.425 51.4628 295.342 51.9184 295.627 51.9944C295.665 51.9944 302.214 53.8357 306.694 55.0886C305.612 55.9239 304.815 56.93 304.17 58.2209C303.581 58.107 302.063 57.7653 300.848 57.4805C300.677 56.4744 300.088 55.5632 299.177 55.0317C297.507 54.0445 295.342 54.5951 294.355 56.2846C293.805 57.2148 293.71 58.3348 294.109 59.3409L294.146 59.3219L306.296 66.8773L306.694 65.8332C306.713 65.8142 307.53 63.764 309.409 62.4731C309.409 63.2325 309.485 63.9538 309.618 64.6562C310.301 68.1302 312.541 71.0346 316.281 73.3126L317.249 77.1093C316.926 77.4699 316.699 77.8876 316.528 78.3622C316.376 78.7798 316.3 79.2354 316.3 79.691C316.262 81.969 318.084 83.8483 320.362 83.8863C320.761 83.9053 321.16 83.8483 321.539 83.7534C321.805 83.6775 322.451 83.4117 322.697 83.1839H322.716L323.324 69.7248L322.982 69.421C320.097 66.8393 318.711 64.2386 318.73 61.448V61.3911C318.768 59.189 319.698 56.8351 321.596 54.2344C322.925 54.69 324.368 54.652 325.716 54.1395C327.215 53.551 328.411 52.412 329.057 50.9313C329.683 49.4126 329.702 47.7801 329.114 46.2804ZM292.343 29.4042C291.869 29.3473 291.698 29.1574 291.603 29.0246L291.451 28.55C292.799 28.493 294.014 27.6008 294.45 26.253C294.906 24.8292 294.317 23.3106 293.14 22.5133L293.463 21.716C294.678 21.8678 296.595 22.2095 297.829 22.4373L297.412 23.6902C297.412 23.6902 297.886 24.1079 298.399 24.1079C299.12 24.1269 299.348 23.937 299.348 23.937L299.69 22.817C300.278 22.9499 301.094 23.1587 302.233 23.4435L302.499 23.5004C303.581 23.6333 304.018 23.0448 304.208 22.7601L304.284 22.6651H304.663C305.29 22.7221 305.48 22.9879 305.536 23.1018C305.65 23.2536 305.726 23.4055 305.726 23.8231C305.707 24.1269 305.366 25.0001 305.043 25.2089V25.2279C304.682 25.5126 304.075 25.7974 303.145 25.8164C300.031 25.8543 298.513 28.2273 298.323 28.531C298.323 28.531 297.526 29.7459 296.5 31.3785C296.235 30.9229 295.855 30.5053 295.342 30.2205C294.469 29.7459 293.596 29.5561 292.343 29.4042ZM280.744 29.7649V29.7269C281.067 28.8347 281.921 28.2462 282.889 28.2462C284.104 28.2652 285.091 29.2903 285.072 30.5053C285.072 30.6761 285.054 30.8659 284.997 31.0368V31.0748C284.921 31.3595 284.864 31.5683 284.769 31.7012V31.7202C284.769 31.7202 291.508 36.1053 292.799 36.9406L292.172 37.9657L287.692 36.8077L280.744 29.7649ZM291.109 39.7122C290.976 39.902 289.932 41.4776 289.534 43.5468L273.701 35.7636C273.701 35.5168 273.758 35.289 273.834 35.0612C274.157 34.169 275.011 33.5805 275.979 33.5805C277.213 33.5995 278.182 34.6246 278.163 35.8396L278.125 36.2002L278.106 36.2572L291.166 39.6172L291.109 39.7122ZM296.121 50.153L301.436 41.9522C301.702 41.5346 301.588 40.984 301.17 40.7183C300.753 40.4525 300.202 40.5664 299.936 40.984L294.393 49.5455C293.976 49.3367 293.501 49.0709 293.083 48.7482L292.932 48.6343L297.886 41.0979C298.171 40.6803 298.038 40.1488 297.639 39.864C297.222 39.5983 296.671 39.7122 296.406 40.1298L291.717 47.2865C291.508 46.8499 291.375 46.3563 291.299 45.6539L291.261 44.9705C291.299 42.7875 292.647 40.8132 292.647 40.7942L292.666 40.7752L299.917 29.5181L299.936 29.4802C299.974 29.4042 301.018 27.7147 303.164 27.6767C304.986 27.6578 306.068 26.8984 306.656 26.253C307.53 26.7655 309.029 27.8476 309.523 29.4802C309.637 29.8788 309.694 30.2775 309.675 30.6951C309.656 31.7581 309.219 32.9161 308.403 34.15C308.403 34.15 307.663 35.289 306.732 36.7508L297.563 50.5326L296.121 50.153ZM309.58 60.1002C307.587 61.1443 306.03 63.0616 305.423 64.1437C304.151 63.3653 297.677 59.2839 295.703 58.05C295.703 57.7463 295.779 57.4426 295.931 57.1768C296.406 56.3605 297.45 56.0947 298.266 56.5693C298.835 56.911 299.177 57.5565 299.101 58.2209L298.987 58.9233L305.309 60.309L305.612 59.6067C306.334 57.8792 307.435 56.6642 309.086 55.7151L310.605 56.1327C310.111 57.5565 309.77 58.8663 309.58 60.1002ZM316.813 61.3531C316.756 64.5803 318.274 67.5986 321.369 70.4651C321.331 71.1295 320.989 78.8937 320.837 81.8741C320.685 81.912 320.514 81.931 320.362 81.912C319.129 81.8931 318.16 80.8869 318.179 79.653C318.179 79.4062 318.217 79.1784 318.312 78.9506C318.502 78.4001 318.806 77.9635 319.337 77.7357L317.895 72.0597L317.553 71.8699C313.282 69.3641 311.194 66.1939 311.269 62.0935C311.288 60.2331 311.782 58.1639 312.693 55.8859L313.092 54.9178L299.31 51.0642L304.189 43.7366C308.061 46.1285 318.54 52.6018 319.812 53.3801C317.895 56.1897 316.87 58.8283 316.813 61.3531Z" fill="black"/>
<path d="M0 75.9514H33.9611V84.6837H22.5332V120.069H11.4849V84.6837H0L0 75.9514ZM47.2874 75.9514V90.9292C48.6542 89.5624 51.4827 86.62 56.6462 86.62C59.0191 86.62 61.6388 87.3034 63.5751 88.936C66.4416 91.3659 66.9541 94.4412 66.9541 98.6744V120.069H57.4055V103.041C57.4055 100.421 57.3486 99.168 56.9689 98.048C56.0387 95.1056 53.476 94.8018 52.4699 94.8018C50.7803 94.8018 49.3566 95.6181 48.5403 96.6812C47.2874 98.3707 47.2874 101.047 47.2874 103.857V120.088H37.6819V75.9514H47.2874ZM93.1701 87.4933H102.776V120.069H93.1701V116.424C92.3158 117.525 91.4236 118.322 90.3985 118.911C88.8609 119.803 86.2412 121.018 83.7354 121.018C81.6092 121.018 77.6797 120.695 75.4397 117.582C73.7501 115.209 73.6362 113.273 73.4464 107.976V87.4933H83.1279V107.71C83.1279 109.153 83.1279 110.577 83.8682 111.583C84.4377 112.323 85.7476 113.216 87.6839 113.216C88.2534 113.216 89.5632 113.216 90.987 112.399C93.0372 111.146 93.1131 109.533 93.1701 107.786V87.4933ZM223.756 87.4933H233.362V120.069H223.756V116.424C222.883 117.525 222.01 118.322 220.985 118.911C219.447 119.803 216.827 121.018 214.322 121.018C212.195 121.018 208.266 120.695 206.007 117.582C204.317 115.209 204.203 113.273 204.014 107.976V87.4933H213.695V107.71C213.695 109.153 213.695 110.577 214.435 111.583C215.005 112.323 216.296 113.216 218.232 113.216C218.802 113.216 220.092 113.216 221.535 112.399C223.585 111.146 223.661 109.533 223.718 107.786V87.4933H223.756ZM118.779 91.3848C121.227 89.1258 123.486 87.74 128.992 87.0377V95.5042L125.024 96.1117C120.411 96.928 119.025 97.6114 119.025 101.731V120.088H109.42V87.4363H118.779V91.3848ZM152.873 115.778C150.993 117.012 148.696 118.531 144.254 118.531C141.559 118.531 138.939 117.829 136.832 116.405C132.466 113.595 130.776 108.527 130.776 102.908C130.776 96.3585 133.832 86.9238 144.634 86.9238C149.532 86.9238 151.942 89.4865 153.366 91.0052V87.4173H162.364V120.126C162.231 123.675 162.117 127.852 157.372 130.604C154.069 132.598 149.19 133.11 146.247 133.11C139.755 133.11 135.522 130.851 133.756 129.048C131.194 126.504 131.251 123.201 131.251 121.435H141.179C141.312 122.878 141.426 124.928 143.988 126.124C144.615 126.447 145.545 126.751 147.045 126.751C152.854 126.751 152.854 123.315 152.854 120.619V115.778H152.873ZM140.704 102.851C140.704 105.584 140.894 111.279 146.817 111.279C151.696 111.279 152.816 107.464 152.816 102.851C152.816 101.294 152.683 98.048 151.62 96.4913C150.879 95.3144 149.133 93.9856 146.38 94.1184C141.824 94.3083 140.704 98.2378 140.704 102.851ZM169.654 96.7381C169.844 94.4791 170.147 91.8025 173.09 89.5055C176.089 87.1326 179.943 86.639 183.758 86.639C187.745 86.639 197.426 87.5692 197.426 95.9978V114.981C197.426 118.474 197.616 118.968 198.357 120.088H188.941V116.614C187.517 117.81 183.701 120.961 178.956 120.961C171.457 120.961 168.287 115.589 168.287 111.033C168.287 105.793 172.463 102.794 175.159 101.674C177.779 100.554 183.948 99.4338 188.011 98.6744V96.928C187.897 95.4283 187.764 92.9225 184.328 92.9225C180.076 92.9225 179.525 95.5422 179.259 96.7381H169.654ZM181.841 106.002C180.228 106.628 177.722 108.09 177.722 110.596C177.722 112.153 179.088 114.374 181.329 114.374C182.524 114.374 183.644 113.937 184.651 113.311C187.84 111.317 187.954 107.312 188.011 103.952L181.841 106.002Z" fill="black"/>
</svg>
