<svg width="336" height="144" fill="none"
    xmlns="http://www.w3.org/2000/svg">
    <path d="M285 66.27h29.259v29.26H285V66.27Zm-87.771 0h29.254v29.26h-29.254V66.27Zm-87.776 0h29.259v29.26h-29.259V66.27Zm-18.624 46.946c0 9.282 1.354 15.306 4.073 18.084 2.299 2.367 6.216 3.824 11.708 4.367 1.628.137 4.421.2 8.362.2V144H44.474v-8.133c5.663 0 9.834-.268 12.533-.811 5.463-1.15 8.906-4.333 10.319-9.551.738-2.704 1.115-6.803 1.115-12.289V6.915c-11.962.337-21.317 4.298-28.07 11.888-6.417 7.262-10.329 18.378-11.752 33.352L21 50.84 22.418 0h114.609l1.423 50.84-7.628 1.315c-1.419-14.974-5.365-26.09-11.806-33.352-6.787-7.59-16.186-11.55-28.187-11.888v106.301Zm-69.69-46.945h29.259v29.258h-29.26V66.271Z" fill="#E2007A"/>
</svg>