<svg width="336" height="144" viewBox="0 0 336 144" fill="none" xmlns="http://www.w3.org/2000/svg">
<path d="M258.918 67.5439H281.675V90.3007H258.918V67.5439ZM190.652 67.5439H213.405V90.3007H190.652V67.5439ZM122.381 67.5439H145.138V90.3007H122.381V67.5439ZM107.896 104.057C107.896 111.276 108.949 115.962 111.064 118.122C112.852 119.963 115.898 121.097 120.17 121.519C121.436 121.625 123.608 121.675 126.674 121.675V128H71.8416V121.675C76.2462 121.675 79.4906 121.466 81.5902 121.043C85.8388 120.149 88.5165 117.673 89.6157 113.615C90.19 111.512 90.4829 108.324 90.4829 104.057V21.3782C81.1794 21.6408 73.9032 24.7216 68.6504 30.6247C63.6601 36.273 60.6173 44.9185 59.5104 56.5651L53.5845 55.5419L54.6875 16H143.828L144.935 55.5419L139.001 56.5651C137.898 44.9185 134.829 36.273 129.819 30.6247C124.54 24.7216 117.23 21.6407 107.896 21.3782V104.057ZM53.6925 67.5439H76.4493V90.3007H53.6925V67.5439Z" fill="#E2007A"/>
</svg>
