<svg width="336" height="144" viewBox="0 0 336 144" fill="none" xmlns="http://www.w3.org/2000/svg">
<g clip-path="url(#clip0_606_411)">
<path d="M336 42.0806H327.271V88.8448H336V42.0806Z" fill="black"/>
<path d="M267.579 54.9811C262.98 54.9811 259.319 56.4039 256.691 58.7753V55.9297H247.963V102.694H256.691V85.9043C259.319 88.3706 262.98 89.6986 267.579 89.6986C275.932 89.6986 283.722 82.6792 283.722 72.3398C283.722 62.0005 275.932 54.8862 267.579 54.8862V54.9811ZM266.077 82.2049C261.384 82.2049 256.691 78.4106 256.691 72.4347C256.691 66.4587 261.384 62.5696 266.077 62.5696C270.77 62.5696 275.369 66.3639 275.369 72.4347C275.369 78.5055 271.427 82.2049 266.077 82.2049Z" fill="black"/>
<path d="M152.137 58.7753C149.509 56.309 145.849 54.981 141.25 54.981C132.896 54.981 125.106 62.0953 125.106 72.4346C125.106 82.774 132.896 89.7934 141.25 89.7934C149.603 89.7934 149.509 88.3705 152.137 85.9991V88.8448H160.865V42.0806H152.137V58.8702V58.7753ZM142.751 82.2049C137.495 82.2049 133.553 78.4106 133.553 72.4346C133.553 66.4587 137.495 62.5696 142.751 62.5696C148.007 62.5696 152.137 66.3638 152.137 72.4346C152.137 78.5055 147.444 82.2049 142.751 82.2049Z" fill="black"/>
<path d="M177.008 62.0004V56.0245H168.279V88.8448H177.008V78.2209C177.008 69.1147 180.668 64.0873 188.74 64.0873H190.617L191.086 55.7399C190.335 55.4553 189.678 55.4553 188.74 55.4553C183.39 55.4553 179.542 58.1113 176.914 61.9056H177.008V62.0004Z" fill="black"/>
<path d="M304.746 55.1709C294.891 55.1709 286.819 62.0954 286.819 72.4348C286.819 82.7741 294.985 89.6987 304.746 89.6987C314.507 89.6987 322.484 82.7741 322.484 72.4348C322.484 62.0954 314.319 55.1709 304.746 55.1709ZM304.746 82.205C299.959 82.205 295.266 78.5056 295.266 72.4348C295.266 66.364 300.053 62.6646 304.746 62.6646C309.439 62.6646 314.037 66.364 314.037 72.4348C314.037 78.5056 309.251 82.205 304.746 82.205Z" fill="black"/>
<path d="M209.577 54.981C200.097 54.981 192.495 62.0952 192.495 72.4346C192.495 82.7739 200.097 89.7933 209.389 89.7933C218.681 89.7933 222.435 86.4733 225.345 79.6436L217.555 78.0311C215.208 82.0151 211.923 82.3945 209.389 82.3945C205.353 82.3945 201.975 79.4539 201.13 74.7111H226.189V71.7706C225.814 61.7158 218.305 54.981 209.483 54.981H209.577ZM201.505 68.6403C202.538 64.5615 206.292 62.5695 209.671 62.5695C213.049 62.5695 216.334 64.3717 217.461 68.6403H201.505Z" fill="black"/>
<path d="M240.361 55.9297H231.633V88.75H240.361V55.9297Z" fill="black"/>
<path d="M89.5688 68.8152C88.5284 64.1316 85.7854 60.0101 81.7182 57.3873C77.5565 54.7646 72.638 53.8278 67.8142 54.8582C63.0849 55.8886 59.0177 58.6987 56.4639 62.7266L51.1671 70.876L43.5057 66.0051L60.8148 39.5899L53.7209 35L36.4118 61.4152L28.1828 56.1696C24.2102 53.5468 19.2918 52.6101 14.5625 53.6405C9.73864 54.6709 5.57687 57.3873 2.92848 61.5089C-2.55749 69.8456 -0.0982572 81.0861 8.31986 86.519C12.387 89.1418 17.3055 89.9848 22.0348 89.0481C26.764 88.0177 30.8312 85.3013 33.5742 81.2734L38.9656 73.124L46.627 77.9949L29.3178 104.41L36.4118 109L53.7209 82.5848L62.0444 87.9241C66.2062 90.4532 71.0301 91.2962 75.6648 90.3595C80.394 89.4228 84.4612 86.6127 87.1096 82.5848C89.758 78.557 90.6093 73.4987 89.5688 68.8152ZM77.0835 64.4127C81.6237 67.3165 82.9478 73.3114 79.9211 77.8076C76.989 82.3038 71.0301 83.5215 66.3008 80.6177L58.0719 75.3722L63.4632 67.2228C64.7874 65.0684 66.9629 63.5696 69.5167 63.1013C72.1651 62.5392 74.8135 63.1013 76.989 64.4127H77.0835ZM23.5481 63.1013L31.7771 68.4405L26.4803 76.5899C23.359 81.0861 17.4001 82.3975 12.86 79.4937C10.6845 78.0886 9.17112 75.9342 8.60361 73.4051C8.03609 70.8759 8.60361 68.2532 9.92781 66.0987C11.3466 63.8506 13.6166 62.3519 16.1705 61.8835C16.8326 61.8835 17.4946 61.6962 18.1567 61.6962C20.0485 61.6962 21.9402 62.0709 23.5481 63.1013Z" fill="black"/>
</g>
<defs>
<clipPath id="clip0_606_411">
<rect width="336" height="144" fill="white"/>
</clipPath>
</defs>
</svg>
