<svg width="336" height="144" viewBox="0 0 336 144" fill="none" xmlns="http://www.w3.org/2000/svg">
<g clip-path="url(#clip0_606_489)">
<path d="M64.2956 47.0226C61.6071 35.9144 56.9025 27.8101 45.9252 27.8101H24.5871V68.6165H37.0208C44.7498 68.6165 49.7904 64.4226 50.9667 54.2211H53.0389V85.7327H50.9667C49.7904 75.248 45.03 71.3373 37.0208 71.3373H24.5871V113.956H45.03C56.0073 113.956 62.2241 107.665 65.7525 94.7438H67.8248L66.6488 116.336H-0.000976562V114.522C8.90428 113.899 9.80035 113.615 9.80035 108.798V33.2522C9.80035 28.4348 8.90424 28.1516 -0.000976562 27.5281V25.4312H65.8088L66.425 47.0233L64.2956 47.0226Z" fill="#AF2832"/>
<path d="M114.087 114.181C128.593 114.181 131.897 103.073 131.897 91.9644C131.897 79.9494 125.681 71.2783 110.839 71.2783H101.373V114.465H114.143V114.181H114.087ZM110.278 68.3322C123.048 68.3322 128.649 60.5112 128.649 48.8362C128.649 36.8215 124.224 27.8669 111.735 27.8669H101.373V68.0485H110.278V68.3322ZM76.7854 114.521C85.6904 113.898 86.5865 113.614 86.5865 108.797V33.2512C86.5865 28.4339 85.6904 28.1506 76.7854 27.5271V25.4302H114.422C133.688 25.4302 144.05 34.4415 144.05 47.6471C144.05 58.1318 135.481 66.8596 120.022 69.2392V69.5226C141.081 72.2429 147.858 82.4443 147.858 92.6448C147.858 107.04 137.496 116.619 118.229 116.619H76.7266C76.7826 116.619 76.7826 114.522 76.7826 114.522L76.7854 114.521Z" fill="#AF2832"/>
<path d="M180.512 75.1896H189.697C206.275 75.1896 210.756 62.8914 210.756 51.5001C210.756 41.0154 206.612 27.8106 192.667 27.8106H180.793V75.1896H180.512ZM196.194 25.4306C215.461 25.4306 226.438 35.9154 226.438 50.0275C226.438 62.9492 217.253 77.627 190.257 77.627H180.456V108.514C180.456 113.331 181.352 113.614 190.257 114.238V116.335H155.868V114.521C164.773 113.898 165.669 113.614 165.669 108.797V33.2512C165.669 28.4339 164.493 28.1506 155.868 27.5271V25.4302L196.194 25.4306Z" fill="#AF2832"/>
<path d="M294.924 36.8209C313.91 41.9215 325.449 61.7004 320.128 81.1972C315.088 100.41 295.541 112.084 276.274 106.701C257.288 101.601 245.75 81.822 251.07 62.3251C256.391 43.1126 275.938 31.7209 294.924 36.8209ZM275.322 111.234C296.94 116.958 318.895 104.037 324.553 82.4446C330.489 60.5677 317.44 38.353 296.1 32.6282C274.762 26.6209 252.527 39.5426 246.87 61.4177C240.99 83.0099 253.703 105.509 275.322 111.234Z" fill="#908783"/>
<path d="M273.882 116.619C249.293 110.045 234.732 84.5418 241.565 59.9449C248.063 35.348 273.265 20.6707 297.572 27.2433C321.88 33.8176 336.387 59.3202 329.889 83.917L334.314 85.107C341.427 57.7902 325.408 29.9059 298.748 22.7085C271.753 15.5109 244.197 31.7198 237.084 58.6975C229.971 86.0144 245.654 113.899 272.65 121.096L273.882 116.619Z" fill="#908783"/>
<path d="M285.747 45.8327C299.972 45.8327 311.51 57.5077 311.51 71.9022C311.51 86.2976 299.972 97.9717 285.747 97.9717C278.634 97.9717 272.137 94.968 267.657 90.4909L264.409 93.4946C269.728 98.8787 277.458 102.506 285.747 102.506C302.324 102.506 315.991 88.7339 315.991 71.9014C315.991 55.0692 302.381 41.2971 285.747 41.2971V45.8327Z" fill="#908783"/>
</g>
<defs>
<clipPath id="clip0_606_489">
<rect width="336" height="102" fill="white" transform="translate(0 21)"/>
</clipPath>
</defs>
</svg>
