<svg width="336" height="144" viewBox="0 0 336 144" fill="none" xmlns="http://www.w3.org/2000/svg">
<path d="M100.826 54.354C100.717 47.1162 97.8668 43.0603 93.1515 43.0603C88.327 43.0603 85.6972 47.0069 85.6972 54.354H100.826ZM115.079 64.9882H85.5879C85.6972 74.1983 88.2197 78.4746 93.5904 78.4746C97.0981 78.4746 99.7298 75.7336 100.717 70.7998H114.531C113.107 83.1899 105.212 90.5349 93.6997 90.5349C79.667 90.5349 71.2236 79.6802 71.2236 61.5898C71.2236 42.6214 79.8855 31 93.9201 31C107.623 31 115.189 41.8547 115.189 61.8082C115.189 62.4676 115.189 63.5621 115.079 64.9882Z" fill="#003763"/>
<path d="M131.672 32.0963L135.948 54.7909C137.045 60.7118 137.702 65.7548 138.141 72.0054C138.58 66.7439 139.565 60.823 141.101 54.0242L146.362 32.0963H157.765L162.371 51.174C165.003 61.9194 165.33 63.3435 165.99 72.0054C166.757 62.7953 166.975 61.0415 168.838 51.174L172.568 32.0963H186.819L172.568 89.4385H159.521L152.064 51.8314L144.61 89.4385H131.672L117.31 32.0963H131.672Z" fill="#003763"/>
<path d="M71.2256 112.872H227.538V101.153H71.2256V112.872Z" fill="#78B725"/>
<path d="M227.534 112.872H264.776V101.153H227.534V112.872Z" fill="#003763"/>
<path d="M227.522 77.7069V89.4395H189.915V76.829L211.185 43.8279H192.217V32.0973H227.522V44.5946L206.144 77.7069H227.522Z" fill="#003763"/>
</svg>
