<svg width="336" height="144" viewBox="0 0 336 144" fill="none" xmlns="http://www.w3.org/2000/svg">
<path d="M220.941 100.1C219.352 94.2863 227.997 84.958 230.667 86.7499C233.272 88.538 227.87 94.7321 220.941 100.1ZM192.722 87.5158C195.455 80.36 201.038 70.1022 202.692 67.5469C208.349 58.7302 216.118 48.0157 219.294 50.509C224.288 54.5932 209.312 70.7894 199.907 80.2455C197.744 82.4155 195.328 85.0878 192.722 87.5158ZM158.399 96.7139C159.289 90.006 162.787 77.7417 174.416 61.0025C188.656 40.4287 195.032 36.036 198.514 38.6051C202.345 41.6387 191.897 55.3146 185.668 64.1325C179.439 72.95 170.933 84.1601 165.912 89.2064C164.387 90.7399 161.325 94.1599 158.399 96.7139ZM119.883 100.932C120.899 95.7577 123.886 89.9438 126.812 85.534C131.833 77.9963 136.191 78.0031 137.49 79.2096C139.768 81.5529 135.584 87.3864 131.833 91.7941C128.021 96.3942 124.588 99.2079 119.883 100.932ZM77.8689 87.8624C76.1124 86.4736 74.4922 85.1108 73.0511 83.8425C77.6067 73.6371 81.416 65.096 81.416 65.096C81.6484 73.8836 79.8715 81.7871 77.8689 87.8624ZM84.2116 39.3746L81.943 44.3491C81.4483 43.5886 80.8889 42.8924 80.3321 42.1963C79.5237 41.2476 78.717 40.2969 77.9102 39.4105C80.0316 39.4219 82.1525 39.431 84.2116 39.3746ZM57.9136 117.781C58.4143 116.648 63.8059 104.563 69.298 92.2551C70.8736 93.6405 72.5863 95.0671 74.4241 96.4861C69.9221 105.694 60.7123 116.202 57.9136 117.781ZM51.5581 28.8895C25.1772 29.6385 12.8085 28.2153 12.8085 28.2153C12.8085 28.2153 31.1872 20.5364 51.5581 28.8895ZM332.042 79.2096C329.706 77.0213 328.419 75.504 303.251 103.744C301.725 105.468 300.391 107.13 299.182 108.662C291.236 104.956 283.221 103.397 275.604 103.025C266.997 102.601 235.236 105.869 227.864 105.359C227.101 105.297 226.1 105.547 225.449 104.704C230.661 100.297 234.924 95.7577 235.687 94.7321C240.01 89.4299 242.552 82.404 237.597 78.634C230.475 73.2663 213.186 88.664 213.761 103.168C213.823 103.744 213.823 104.381 213.888 104.956C211.41 106.428 208.993 107.576 206.958 108.151C198.125 110.706 191.897 106.938 190.624 101.826C190.308 100.356 190.178 98.6318 190.37 96.9059C202.32 84.8962 217.256 68.4746 218.528 66.5605C218.528 66.5605 235.054 47.1384 225.708 41.5148C216.621 36.083 206.26 51.5449 196.28 66.6865C188.273 78.8899 184.078 91.5382 183.443 94.2863C183.317 94.7976 183.187 95.3724 183.06 96.0778C176.068 102.082 169.779 107.064 167.554 108.151C161.64 111.09 159.228 107.896 158.399 103.934C162.722 99.8444 166.534 95.948 169.396 93.0738C180.518 81.8284 200.73 54.2286 206.958 42.7283C208.866 39.1524 211.41 31.421 206.958 27.651C199.395 21.3909 183.697 37.4902 174.162 50.2683C169.204 56.9125 150.68 81.5529 148.612 104.828C144.671 107.896 140.857 110.514 138.061 111.921C130.56 115.691 125.092 116.375 121.422 110.961C121.006 110.259 120.678 109.56 120.392 108.791C143.273 98.6961 152.743 75.9502 140.605 70.4564C133.739 67.2621 121.282 78.3782 117.087 87.3221C114.989 91.6676 113.083 97.1613 112.258 102.593C102.131 102.989 91.5565 97.642 83.0333 91.7021C87.6595 79.265 89.2146 66.4192 86.3338 54.1437L92.9503 39.2866C102.499 39.1398 110.425 38.9228 114.732 38.6259C130.714 37.4342 139.32 38.7349 139.299 43.7169C139.287 46.239 151.661 27.6245 123.392 27.5007C120.151 27.4868 108.711 27.6979 96.8047 27.9411L97.5262 26.3653C97.5262 26.3653 98.7348 22.5953 93.7787 22.5953C90.0282 22.5953 88.8196 26.3653 88.8196 26.3653L88.0039 28.1269C76.2827 28.3756 66.0124 28.6085 65.0375 28.6349C52.9047 20.8221 39.4876 18.8391 27.5746 19.0099C20.5633 19.3241 3.04427 20.54 3.00054 30.696C2.97061 37.5076 4.14914 39.4046 16.4408 39.4575C25.9253 39.4986 47.2687 39.5928 68.0482 39.4953C70.0992 41.3944 72.1499 43.4852 74.1354 45.8905C75.8766 47.9813 77.2385 50.0686 78.3547 52.279L66.7169 77.8473C65.9685 77.078 65.559 76.628 65.559 76.628C62.2384 72.6852 59.2189 70.929 57.3125 72.1973C53.562 74.753 55.7301 77.7289 57.7003 80.351C57.9604 80.6984 59.8195 82.997 62.9221 86.1888L47.4185 120.259C47.4185 120.259 46.714 123.786 49.2657 125.88C55.3828 130.962 70.4505 118.108 79.4028 100.085C88.5343 106.251 99.8604 111.475 112.067 111.475C112.956 117.286 116.071 121.886 123.062 123.228C131.452 124.889 141.938 118.246 151.219 110.388C160.624 122.015 168.57 115.371 178.166 108.151C179.375 107.256 180.901 105.914 182.68 104.32C183.379 110.13 186.62 116.202 196.917 116.968C203.399 117.414 210.199 114.795 216.239 111.219C220.806 117.497 234.868 113.295 262.136 113.295C291.246 113.295 291.555 118.502 293.653 118.756C290.983 128.657 301.917 128.977 305.921 123.228C309.162 118.502 307.889 114.731 304.394 111.792C305.219 111.154 305.794 110.706 305.794 110.706L331.406 84.2563C331.406 84.2563 334.52 81.7641 332.042 79.2096Z" fill="#DF2900"/>
</svg>
