<svg width="336" height="144" viewBox="0 0 336 144" fill="none" xmlns="http://www.w3.org/2000/svg">
<path fill-rule="evenodd" clip-rule="evenodd" d="M52.5414 101.553V67.2576L37.8288 101.553H29.6663L15.1975 67.2576V101.553H0V42.1472H20.3456L34.3218 75.6893L48.9491 42.1472H67.7363V101.553H52.5414ZM79.4338 101.553V42.1472H92.4292C93.5678 42.1472 94.7058 43.2859 94.7058 44.5246V101.553H79.4338ZM136.872 67.3414H156.19C157.714 67.3414 158.575 68.5888 158.575 70.0537V100.741C153.142 101.955 144.651 102.7 138.339 102.7C116.192 102.7 104.512 92.1419 104.512 71.7709C104.513 53.5927 116.192 41 135.659 41C144.233 41 151.753 43.2859 156.593 46.5511L150.606 56.7746C146.418 54.8989 140.784 53.5927 136.798 53.5927C125.604 53.5927 120.37 61.0193 120.37 71.7709C120.37 83.2497 126.431 90.3416 137.61 90.3416C139.653 90.3416 142.199 90.2662 144.233 89.9479V79.4819H136.872V67.3414ZM192.47 53.5927H184.994V68.488H192.47C196.933 68.488 200.441 66.1103 200.441 60.4584C200.442 54.7313 196.933 53.5927 192.47 53.5927ZM203.724 101.553L196.674 85.2008C195.233 81.8685 194.228 80.219 191.171 80.219H184.994V101.553H170.065V44.5246C170.065 43.2859 171.421 42.1472 172.392 42.1472H193.467C204.92 42.1472 214.741 44.5246 214.741 59.3114C214.741 65.9341 211.076 72.7169 204.2 74.0901C207.625 75.2537 211.076 79.6411 212.942 84.4053L219.734 101.553H203.724ZM252.739 53.5927C244.727 53.5927 239.025 59.3114 239.025 71.7709C239.025 84.4053 244.726 90.1077 252.739 90.1077C259.613 90.1077 265.239 84.4053 265.239 71.7709C265.24 59.3114 259.613 53.5927 252.739 53.5927ZM252.739 102.7C233.289 102.7 222.998 88.9607 222.998 71.7709C222.998 54.7313 233.289 41 252.739 41C270.959 41 281.266 54.7313 281.266 71.7709C281.267 88.96 270.958 102.7 252.739 102.7ZM310.512 102.7C300.466 102.7 291.137 99.1003 286.976 96.2365L293.75 84.2298C297.527 86.5156 304.877 90.0319 311.651 90.0319C315.486 90.0319 320.334 89.2954 320.334 85.0336C320.334 81.0313 314.917 79.8088 307.815 77.7739C299.242 75.3205 289.262 71.9044 289.262 60.3746C289.262 47.9491 300.305 41 314.675 41C324.16 41 331.512 44.3571 335.263 47.9491L327.015 57.3355C322.938 54.8989 318.768 53.0068 314.096 53.0068C308.47 53.0068 305.288 55.142 305.288 58.2479C305.289 61.3293 309.365 62.9034 314.505 64.4522C323.592 67.2576 336 70.1211 336 82.0193C336.001 94.277 326.202 102.7 310.512 102.7Z" fill="#FF6600"/>
</svg>
