<svg width="336" height="144" viewBox="0 0 336 144" fill="none" xmlns="http://www.w3.org/2000/svg">
<path d="M154.965 51.6841C149.268 51.6841 145.187 54.7478 142.646 59.1131C140.72 54.6713 136.64 51.6841 130.403 51.6841C125.012 51.6841 121.316 54.441 118.93 58.5003V52.6022H111.538V92.1277H119.237V70.4497C119.237 61.8712 124.011 58.4241 128.555 58.4241C133.483 58.4241 136.255 60.9516 136.255 66.6195V92.1277H143.954V70.4497C143.954 61.8712 148.574 58.4241 153.271 58.4241C158.2 58.4241 160.895 60.9516 160.895 66.6195V92.1277H168.671V65.6237C168.671 57.5048 163.974 51.6841 154.965 51.6841Z" fill="black"/>
<path d="M241.857 52.6022V58.1947C239.009 54.1339 234.542 51.6841 228.69 51.6841C217.679 51.6841 210.519 59.7267 210.519 72.1346C210.519 84.4673 217.756 92.5862 228.767 92.5862C234.388 92.5862 238.7 90.3643 241.55 86.4587V90.8239C241.129 99.9171 234.19 105.717 232.416 107.618L228.237 111.33L233.443 117.079L238.217 112.635C240.386 110.558 249.038 102.929 249.249 90.6711V52.6022H241.857ZM230.154 85.9991C223.07 85.9991 218.527 80.7145 218.527 72.1346C218.527 63.6323 223.07 58.2712 230.154 58.2712C237.238 58.2712 241.78 63.3267 241.78 72.1346C241.78 80.9436 237.238 85.9991 230.154 85.9991Z" fill="black"/>
<path d="M200.818 52.6023L196.412 66.0144C196.412 66.0144 191.424 81.8717 190.44 85.0799C188.593 78.7984 186.591 72.4415 184.512 66.16L179.892 52.6023H171.258L185.115 92.1013H187.937L186.988 94.9066C185.259 99.8066 181.431 104.372 178.65 107.096C176.926 108.783 175.942 109.578 173.959 111.33C176.749 114.401 179.166 117.079 179.166 117.079C179.166 117.079 182.378 114.331 185.42 111.337C191.802 105.056 193.983 98.3549 195.106 95.2862L209.643 52.6023H200.818Z" fill="black"/>
<path d="M276.402 51.9897C270.088 51.9897 266.161 55.3603 264.006 59.649V52.6022H256.667V92.1277H264.313V70.6791C264.313 63.0961 269.087 59.3433 276.71 59.3433H278.634V52.066C277.788 51.9897 277.096 51.9897 276.402 51.9897Z" fill="black"/>
<path d="M328.299 37.5903V57.9645C325.451 53.9815 321.062 51.6842 315.441 51.6842C304.353 51.6842 297.269 59.7268 297.269 72.3652C297.269 85.0033 304.353 93.0462 315.441 93.0462C321.293 93.0462 325.759 90.5184 328.608 86.3048V92.1278H336V37.5903H328.299ZM316.904 86.4588C309.82 86.4588 305.278 81.7093 305.278 72.6709C305.278 63.6324 309.82 58.2714 316.904 58.2714C323.988 58.2714 328.531 63.3268 328.531 72.3652C328.531 81.4037 323.988 86.4588 316.904 86.4588Z" fill="black"/>
<path d="M291.595 52.6023H283.857V92.1278H291.595V52.6023Z" fill="black"/>
<path fill-rule="evenodd" clip-rule="evenodd" d="M83.5765 96.7734C79.4589 89.6791 76.5724 84.7608 74.4727 81.144C68.9647 71.6532 58.4962 68.1516 50.6851 68.1516V75.7928C56.2855 75.7928 63.8714 78.1591 67.8198 84.9634C69.9208 88.5814 72.8069 93.4997 76.9236 100.594L83.5765 96.7734Z" fill="#18D2B0"/>
<path fill-rule="evenodd" clip-rule="evenodd" d="M43.1345 24C39.0166 31.0939 36.1791 36.039 34.0781 39.6582C28.5701 49.1479 30.7808 59.9026 34.6865 66.633L41.3394 62.8124C38.5384 57.9875 36.7828 50.282 40.731 43.4788C42.8307 39.8596 45.6695 34.9145 49.7862 27.8206L43.1345 24Z" fill="#18D2B0"/>
<path fill-rule="evenodd" clip-rule="evenodd" d="M84.4737 48.7732C76.239 48.7732 70.5142 48.8011 66.3134 48.8011C55.2975 48.8011 47.0397 56.082 43.1343 62.8123L49.786 66.6329C52.5869 61.8081 58.4168 56.4423 66.3134 56.4423C70.5142 56.4423 76.239 56.4144 84.4737 56.4144V48.7732Z" fill="#18D2B0"/>
<path fill-rule="evenodd" clip-rule="evenodd" d="M0.896484 47.2266C5.01526 54.3208 7.90168 59.2392 10.0015 62.8572C15.5095 72.348 25.9779 75.8207 33.7891 75.8207V68.1795C28.1886 68.1795 20.6028 65.8397 16.6531 59.0366C14.5522 55.4186 11.6672 50.5002 7.5505 43.406L0.896484 47.2266Z" fill="#18D2B0"/>
<path fill-rule="evenodd" clip-rule="evenodd" d="M41.3394 120C45.4561 112.906 48.2948 107.961 50.3946 104.342C55.9038 94.8521 53.6931 84.0973 49.7862 77.3669L43.1345 81.1875C45.934 86.0124 47.6914 93.718 43.7429 100.522C41.6431 104.14 38.8044 109.085 34.6865 116.179L41.3394 120Z" fill="#18D2B0"/>
<path fill-rule="evenodd" clip-rule="evenodd" d="M0 95.2267C8.23434 95.2267 13.9595 95.1987 18.159 95.1987C29.1762 95.1987 37.4325 87.9179 41.3394 81.1875L34.6865 77.3669C31.8867 82.1918 26.0568 87.5575 18.159 87.5575C13.9595 87.5575 8.23434 87.5855 0 87.5855L0 95.2267Z" fill="#18D2B0"/>
</svg>
