<svg width="336" height="144" viewBox="0 0 336 144" fill="none" xmlns="http://www.w3.org/2000/svg">
<path d="M245.885 16C246.69 15.9899 246.995 16.2732 246.951 17.0742C246.904 17.9519 246.903 18.8365 246.952 19.7139C246.998 20.5268 246.669 20.7814 245.876 20.7774C241.035 20.7529 236.193 20.7658 231.351 20.7666C230.852 20.7667 230.352 20.7903 229.855 20.7656C229.206 20.7335 228.977 21.0314 228.979 21.6602C228.992 25.6216 229.001 29.5837 228.972 33.5449C228.966 34.3702 229.359 34.5101 230.057 34.5078C234.957 34.4921 239.858 34.4897 244.758 34.5049C247.251 34.5127 246.929 34.1982 246.938 36.7237C246.953 41.1547 246.945 45.5865 246.941 50.0176C246.94 51.1888 246.906 51.2178 245.772 51.2266C244.979 51.2327 244.187 51.2317 243.395 51.2266C242.228 51.219 242.193 51.1917 242.191 50.0528C242.185 47.0889 242.191 44.125 242.187 41.1612C242.185 39.977 242.104 39.9139 240.998 40.3291C235.067 42.5553 231.041 46.647 229.306 52.7549C227.672 58.5068 228.833 63.8383 232.393 68.6133C234.565 71.527 237.425 73.5712 240.846 74.8145C242.122 75.2783 242.185 75.2333 242.187 73.9063C242.19 71.0013 242.211 68.096 242.175 65.1914C242.165 64.3564 242.438 64.0203 243.287 64.0723C244.164 64.1259 245.049 64.1172 245.927 64.0742C246.69 64.037 246.96 64.3359 246.952 65.0977C246.924 68.0319 246.942 70.9669 246.943 73.9014C246.943 75.7793 246.909 77.6583 246.955 79.5352C246.976 80.3815 246.671 80.6519 245.835 80.6475C240.671 80.6201 235.506 80.6333 230.341 80.6358C228.988 80.6364 228.983 80.6408 228.983 82.0098C228.981 85.7366 228.98 89.4637 228.985 93.1904C228.986 94.3323 229.021 94.3653 230.186 94.3662C235.321 94.3702 240.457 94.3677 245.592 94.3701C246.937 94.3708 246.938 94.3758 246.942 95.7529C246.944 96.4863 246.944 97.2198 246.942 97.9531C246.937 99.2934 246.936 99.2975 245.554 99.2979C239.362 99.2996 233.17 99.2988 226.979 99.2988C226.509 99.2988 226.039 99.3008 225.57 99.2988C224.236 99.2932 224.231 99.2923 224.23 97.9951C224.226 95.0314 224.228 92.0673 224.228 89.1035C224.228 86.7267 224.23 84.3495 224.227 81.9727C224.225 80.6426 224.221 80.6363 222.919 80.6358C216.816 80.6333 210.711 80.7127 204.609 80.6094C199.594 80.5245 195.107 78.8009 191.179 75.6699C188.698 73.693 186.67 71.3195 185.178 68.5215C184.324 66.9203 183.614 65.2425 183.22 63.458C183.064 62.7528 182.798 62.7775 182.375 63.2344C182.276 63.3418 182.168 63.4423 182.065 63.5459C170.466 75.1451 158.866 86.7444 147.267 98.3438C146.401 99.21 146.401 99.2121 147.281 100.092C150.683 103.495 154.063 106.922 157.507 110.282C158.292 111.048 158.594 111.821 158.572 112.902C158.507 115.982 158.573 119.065 158.536 122.146C158.526 122.989 158.815 123.309 159.656 123.257C160.474 123.206 161.298 123.259 162.119 123.248C162.648 123.241 162.955 123.421 162.947 124.005C162.934 125.09 162.937 126.176 162.946 127.262C162.95 127.785 162.694 128.008 162.188 127.994C161.953 127.988 161.718 128 161.484 128C149.247 128 137.01 128.001 124.774 128C123.337 128 123.336 127.996 123.333 126.53C123.332 125.797 123.377 125.06 123.323 124.33C123.26 123.464 123.636 123.177 124.456 123.238C125.069 123.284 125.688 123.248 126.304 123.246C127.729 123.242 127.733 123.242 127.734 121.855C127.736 118.744 127.752 115.633 127.723 112.522C127.716 111.821 127.935 111.315 128.432 110.822C132.307 106.979 136.152 103.104 140.029 99.2617C140.546 98.7484 140.78 98.2285 140.779 97.4903C140.759 86.1045 140.764 74.7188 140.764 63.333C140.764 63.1277 140.764 62.9212 140.748 62.7168C140.72 62.3576 140.546 62.3237 140.296 62.541C140.119 62.6948 139.957 62.8663 139.791 63.0322C136.181 66.6425 132.582 70.2653 128.956 73.8604C124.986 77.7966 120.205 80.1326 114.64 80.5889C108.638 81.0809 103.118 79.5925 98.3518 75.7979C93.4106 71.8637 90.461 66.7732 89.6877 60.4619C88.9075 54.0936 90.4855 48.3282 94.426 43.3272C98.1517 38.5988 103.052 35.7206 109.09 34.8145C114.074 34.0665 118.766 34.8937 123.223 37.126C125.001 38.0164 126.613 39.18 128.086 40.5528C132.959 45.0949 137.534 49.9369 142.279 54.6074C142.752 55.0737 143.231 55.2899 143.901 55.2891C156.402 55.2738 168.903 55.2716 181.404 55.2901C182.255 55.2913 182.59 55.0801 182.729 54.1455C183.528 48.774 185.939 44.1943 189.955 40.544C193.699 37.1419 198.1 35.0684 203.194 34.6807C208.728 34.2594 214.275 34.6014 219.816 34.5039C220.901 34.4848 221.989 34.4551 223.072 34.5137C223.949 34.5612 224.253 34.2561 224.243 33.3613C224.204 29.5764 224.227 25.7903 224.228 22.0049C224.228 20.3617 224.259 18.7173 224.217 17.0752C224.197 16.2779 224.477 15.9954 225.283 16.001C229.363 16.0293 233.442 16.0132 237.61 16.0127C240.427 16.0132 243.156 16.0345 245.885 16ZM146.492 106.179C146.274 105.962 146.071 105.541 145.741 105.671C145.35 105.825 145.528 106.294 145.528 106.622C145.516 111.019 145.52 115.416 145.52 119.9C145.521 120.751 145.551 121.514 145.514 122.274C145.479 122.995 145.767 123.264 146.489 123.254C148.569 123.225 150.651 123.22 152.732 123.258C153.526 123.272 153.818 123.001 153.807 122.193C153.771 119.585 153.779 116.976 153.806 114.367C153.813 113.729 153.61 113.266 153.157 112.82C150.922 110.62 148.716 108.39 146.492 106.179ZM140.594 105.574C140.343 105.484 140.198 105.771 140.04 105.929C137.695 108.266 135.362 110.616 133.008 112.944C132.619 113.329 132.477 113.743 132.484 114.273C132.503 115.767 132.49 117.262 132.489 118.845C132.49 120.046 132.518 121.16 132.483 122.272C132.46 122.989 132.731 123.264 133.455 123.254C135.564 123.225 137.674 123.226 139.783 123.254C140.492 123.263 140.775 123.019 140.773 122.288C140.754 116.926 140.765 111.564 140.759 106.202C140.759 105.984 140.862 105.67 140.594 105.574ZM152.807 60.0254C150.784 60.0522 148.761 60.0303 146.738 60.0352C145.545 60.038 145.522 60.0607 145.522 61.2832C145.519 67.2934 145.52 73.3041 145.52 79.4024C145.52 83.712 145.518 87.9337 145.527 92.1553C145.527 92.3989 145.4 92.7515 145.713 92.8545C145.943 92.9301 146.101 92.6373 146.262 92.4766C148.607 90.1367 150.945 87.7892 153.295 85.4541C153.628 85.1234 153.799 84.7713 153.798 84.293C153.79 76.5236 153.786 68.7537 153.803 60.9844C153.804 60.2463 153.508 60.0162 152.807 60.0254ZM178.342 60.2276C178.24 59.9131 177.887 60.0402 177.644 60.0401C171.631 60.0328 165.618 60.045 159.606 60.0215C158.802 60.0184 158.526 60.295 158.538 61.0938C158.574 63.4689 158.551 65.8449 158.55 68.3086C158.55 71.9749 158.548 75.5536 158.557 79.1319C158.557 79.3751 158.431 79.7284 158.748 79.8262C158.976 79.896 159.135 79.6041 159.297 79.4424C165.521 73.2229 171.743 67.0013 177.962 60.7774C178.123 60.6163 178.416 60.4573 178.342 60.2276ZM188.192 60.0381C187.682 60.0319 187.395 60.1955 187.574 60.7754C187.643 60.997 187.651 61.2371 187.702 61.4649C188.663 65.7049 190.848 69.1661 194.244 71.8877C197.371 74.3931 200.948 75.7997 204.914 75.8467C213.772 75.9516 222.633 75.8815 231.492 75.875C231.798 75.8749 232.135 75.9765 232.462 75.6836C230.559 73.8996 228.657 72.1319 227.334 69.7842C225.665 67.2771 224.714 64.5585 224.227 61.6729C223.951 60.0409 223.987 60.0333 222.339 60.0332C211.221 60.0328 200.103 60.0329 188.985 60.0332C188.721 60.0332 188.456 60.0414 188.192 60.0381ZM135.508 60.1817C135.379 59.8696 134.869 60.0431 134.531 60.0391C133.241 60.0238 131.951 60.0331 130.661 60.0332C125.766 60.0336 120.87 60.0435 115.975 60.0235C115.22 60.0204 114.862 60.2072 114.867 61.0547C114.899 65.6274 114.886 70.2005 114.879 74.7735C114.878 75.4187 114.996 75.7236 115.793 75.5762C119.442 74.9015 122.598 73.2947 125.239 70.7051C127.854 68.1395 130.427 65.5286 133.062 62.8936C133.707 62.2486 134.32 61.6596 134.903 61.041C135.149 60.7797 135.665 60.5636 135.508 60.1817ZM105.981 60.0264C105.25 60.0009 105.003 60.3029 105.013 61.0127C105.04 63.0628 105.022 65.1135 105.021 67.252C105.022 69.3613 105.042 71.3835 105.011 73.4043C105.001 74.0358 105.249 74.3985 105.818 74.5889C106.953 74.9691 108.082 75.3534 109.273 75.5567C109.911 75.6657 110.129 75.5063 110.128 74.875C110.118 70.2173 110.116 65.5591 110.129 60.9014C110.131 60.2524 109.858 60.0165 109.232 60.0303C108.148 60.0541 107.063 60.0642 105.981 60.0264ZM99.2317 60.0244C98.0306 60.0625 96.8275 60.029 95.6252 60.0342C94.504 60.039 94.5037 60.0445 94.6623 61.2305C95.4489 64.7465 96.9591 67.7963 99.4924 70.3018C99.6794 70.4867 99.8355 70.7777 100.119 70.6475C100.354 70.5395 100.261 70.2263 100.261 70.002C100.266 67.0106 100.246 64.0184 100.277 61.0274C100.284 60.2448 99.9724 60.0009 99.2317 60.0244ZM231.489 39.2559C222.982 39.2559 214.475 39.2384 205.968 39.2735C204.573 39.2792 203.168 39.4195 201.791 39.7227C197.452 40.6786 193.907 42.9068 191.146 46.3809C189.385 48.5969 188.249 51.1137 187.648 53.8701C187.346 55.2525 187.387 55.2781 188.843 55.2783C195.15 55.2796 201.458 55.2783 207.853 55.2783C212.928 55.2778 217.915 55.2699 222.902 55.2852C223.623 55.2874 223.972 55.1281 224.089 54.2901C224.682 50.0525 226.359 46.2683 229.067 42.9434C229.958 41.8494 230.917 40.8319 232.032 39.9639C232.205 39.8296 232.488 39.6759 232.387 39.419C232.285 39.1593 231.974 39.289 231.753 39.2578C231.667 39.2456 231.577 39.2559 231.489 39.2559ZM116.022 39.6699C115.054 39.4513 114.884 39.5935 114.883 40.5899C114.879 45.0771 114.879 49.5645 114.883 54.0518C114.884 55.2539 114.907 55.2757 116.123 55.2764C121.784 55.2796 127.444 55.2782 133.192 55.2783C133.895 55.2777 134.512 55.2873 135.127 55.2715C135.344 55.2659 135.655 55.3709 135.736 55.0781C135.792 54.8733 135.55 54.7305 135.406 54.5908C131.877 51.1571 128.511 47.5605 124.892 44.2149C122.341 41.8568 119.366 40.4257 116.022 39.6699ZM100.136 44.4971C99.9099 44.3376 99.779 44.6043 99.6399 44.7305C99.0959 45.2234 98.6225 45.7798 98.178 46.3653C96.3418 48.7837 95.0886 51.4489 94.5959 54.4678C94.4805 55.1754 94.7664 55.2826 95.3323 55.2783C96.6818 55.2683 98.0318 55.2582 99.3811 55.2813C100.019 55.2921 100.28 55.0379 100.269 54.3975C100.246 53.0777 100.264 51.7569 100.266 50.3487C100.265 48.5001 100.267 46.739 100.258 44.9785C100.257 44.8124 100.24 44.5704 100.136 44.4971ZM110.124 40.3897C110.125 39.6769 109.752 39.5486 109.155 39.6699C108.236 39.8566 107.323 40.0602 106.384 40.4307C105.791 40.7465 105.018 40.7225 105.021 41.6445C105.036 45.9274 105.031 50.2112 105.024 54.4942C105.023 55.0573 105.277 55.2827 105.825 55.2764C106.999 55.2628 108.173 55.262 109.346 55.2754C109.912 55.2818 110.126 55.0158 110.125 54.4697C110.118 49.7764 110.117 45.083 110.124 40.3897Z" fill="#432D27"/>
<path d="M215.842 48.0216C214.034 46.719 214.269 44.0851 215.608 43.0074C216.588 42.219 218.159 41.9739 219.293 42.6132C220.475 43.2788 221.098 44.6583 220.851 46.0606C220.638 47.2659 219.441 48.431 218.234 48.5646C217.406 48.6564 216.599 48.5727 215.842 48.0216Z" fill="#432D27"/>
<path d="M217.712 66.5813C220.035 67.09 221.019 68.2143 220.873 70.1091C220.748 71.7229 219.308 73.0456 217.694 73.0296C216.113 73.0139 214.676 71.7502 214.553 70.2677C214.396 68.3852 215.347 67.0267 217.041 66.7109C217.242 66.6735 217.44 66.6248 217.712 66.5813Z" fill="#432D27"/>
</svg>
