<svg width="336" height="144" viewBox="0 0 336 144" fill="none" xmlns="http://www.w3.org/2000/svg">
<path fill-rule="evenodd" clip-rule="evenodd" d="M1.48788 46.2708H13.1429V98.6472H1.48438L1.48788 46.2708ZM32.1934 76.8143L44.2544 98.7919H31.2344L20.1324 78.6143H15.4704V70.0413H23.1459C28.6304 70.0413 31.9204 66.999 31.9204 62.7143C31.9204 58.2884 28.7704 54.9708 23.1459 54.9708H15.4704V46.2708H23.1459C34.8009 46.2708 43.1589 52.2108 43.1589 62.4355C43.1589 69.3531 38.2239 74.3296 32.1969 76.8143H32.1934ZM144.183 46.2708H155.838V98.6472H144.183V46.2708ZM174.748 76.8143L186.813 98.7919H173.793L162.687 78.6143H158.025V70.0413H165.701C171.185 70.0413 174.475 66.999 174.475 62.7143C174.475 58.2884 171.325 54.9708 165.701 54.9708H158.025V46.2708H165.701C177.356 46.2708 185.714 52.2108 185.714 62.4355C185.854 69.3531 180.915 74.3296 174.748 76.8143ZM249.316 98.6543H238.49L254.247 49.5884L260.005 65.8943" fill="black"/>
<path fill-rule="evenodd" clip-rule="evenodd" d="M267.68 81.653L255.626 46.2707H267.96L285.775 98.6542H273.578L270.561 90.0848L254.937 90.2259L257.674 81.6495M290.99 46.2707H302.638V98.6471H290.983L290.99 46.2707ZM304.829 46.2707H309.904C324.842 46.2707 334.159 57.6001 334.159 72.3883C334.159 87.0424 324.296 98.5165 309.904 98.5165H304.829V89.8059H309.904C317.58 89.8059 322.511 82.0659 322.511 72.9424C322.511 62.9895 317.856 54.8365 309.901 54.8365H304.826L304.829 46.2707ZM65.5028 46.2707H88.8058V55.1118H65.5028V46.2707ZM65.5028 65.8942H83.8708V74.7389H65.5028V65.8942ZM65.5028 89.8059H89.4918V98.6507H65.4993L65.5028 89.8059ZM51.6603 46.2707H63.3083V98.6471H51.6533L51.6603 46.2707ZM212.58 100.034C198.188 100.034 191.195 87.3177 191.195 72.5295C191.195 57.6001 198.461 45.5754 212.58 45.0212V54.9742C205.041 55.5283 202.85 63.2683 202.85 72.6671C202.85 82.0624 205.041 90.3565 212.58 90.3565V100.027V100.034ZM214.774 100.034C229.166 100.034 236.159 87.3177 236.159 72.5295C236.159 57.6001 228.893 45.5754 214.774 45.0212V54.9742C222.313 55.5283 224.504 63.2683 224.504 72.6671C224.504 82.0624 222.313 90.3565 214.774 90.3565V100.027V100.034ZM97.8498 46.2707H109.505V98.6471H97.8498V46.2707ZM111.696 46.2707H117.04C128.415 46.2707 137.876 53.453 137.876 63.6812C137.876 74.3259 128.828 81.2365 117.04 81.2365H111.696V72.3883H117.04C122.525 72.3883 126.77 68.7954 126.77 64.0942C126.77 59.2589 121.153 55.1118 117.04 55.1118H111.696V46.2707Z" fill="black"/>
</svg>
