<svg width="336" height="144" viewBox="0 0 336 144" fill="none" xmlns="http://www.w3.org/2000/svg">
<mask id="mask0_606_609" style="mask-type:luminance" maskUnits="userSpaceOnUse" x="0" y="48" width="336" height="47">
<path d="M0 48H336V94.7294H0V48Z" fill="white"/>
</mask>
<g mask="url(#mask0_606_609)">
<path d="M128.276 48.6375H95.5918V54.7659H128.276V48.6375Z" fill="#FF4773"/>
<path d="M128.276 75.1934H95.5918V81.3215H128.276V75.1934Z" fill="#85052E"/>
<path d="M128.276 61.915H95.5918V68.0432H128.276V61.915Z" fill="#DB001C"/>
<path d="M128.276 68.0439H95.5918V75.1935H128.276V68.0439Z" fill="#B50024"/>
<path d="M128.276 54.7651H95.5918V61.9147H128.276V54.7651Z" fill="#FF0A00"/>
<path d="M122.146 61.9147H114.997V54.7651H108.868V61.9147H101.719V68.0431H108.868V75.1927H114.997V68.0431H122.146V61.9147Z" fill="white"/>
<path d="M132.492 88.027L149.281 68.0455H133.641V61.9171H158.729V66.5774L141.11 87.7078H159.368V93.8362H132.492V88.027ZM160.772 77.8764C160.772 67.7261 167.219 61.0231 177.306 61.0231C188.541 61.0231 194.35 70.1518 191.222 80.6213H168.624C169.454 85.5367 172.39 88.3454 177.242 88.3454C180.561 88.3454 182.732 87.0689 184.072 85.026H192.244C190.073 90.6439 185.094 94.7294 177.114 94.7294C167.155 94.7294 160.772 88.0265 160.772 77.8764ZM184.328 75.1951C184.966 70.3433 182.349 67.1515 177.178 67.1515C172.262 67.1515 169.326 70.0243 168.624 75.1951H184.328ZM209.861 67.4707C206.222 67.4707 203.987 71.748 203.987 78.1954V93.8357H196.71V61.9169H203.987V67.343C205.711 63.385 208.775 61.0231 212.733 61.0231C221.288 61.0231 222.437 69.8326 220.777 75.1949H213.116C214.521 71.2373 213.691 67.4707 209.861 67.4707ZM225.182 49.1496H232.46V93.8362H225.182V49.1496ZM259.27 88.2821C256.908 92.3676 253.013 94.7294 247.778 94.7294C241.01 94.7294 236.798 90.3886 236.798 84.8347C236.798 78.3871 242.417 74.3014 251.417 74.3014C253.906 74.3014 256.459 74.6206 258.694 75.1313C258.566 70.5989 256.778 67.343 251.863 67.343C248.033 67.343 246.374 69.2582 245.99 71.237H238.522C238.586 65.4278 243.629 61.0231 251.928 61.0231C261.247 61.0231 265.973 66.8323 265.973 75.7056V93.8357H259.27V88.2821ZM249.247 88.9202C254.098 88.9202 257.993 85.7285 259.078 80.6851C256.97 79.9831 254.354 79.6001 251.99 79.6001C246.756 79.6001 244.202 81.7066 244.202 84.6432C244.202 87.1966 246.118 88.9202 249.247 88.9202ZM271.397 61.9166H278.674V67.7897C280.781 63.5765 284.674 61.0231 289.526 61.0231C299.803 61.0231 299.803 71.1732 299.803 75.961V93.8357H292.526V76.1527C292.526 72.5138 292.526 67.343 286.908 67.343C282.058 67.343 278.674 71.6842 278.674 78.1954V93.8357H271.397V61.9166ZM303.444 77.8766C303.444 67.7902 309.382 61.0234 317.873 61.0234C322.531 61.0234 326.299 63.0662 328.726 66.6413V49.1496H336.003V93.8362H328.726V89.112C326.299 92.687 322.531 94.7299 317.873 94.7299C309.447 94.7299 303.444 88.027 303.444 77.8766ZM329.045 77.8766C329.045 71.5567 325.469 67.4071 320.107 67.4071C314.681 67.4071 311.105 71.5567 311.105 77.8766C311.105 84.1966 314.681 88.3459 320.107 88.3459C325.469 88.3459 329.045 84.1966 329.045 77.8766ZM0.0305533 82.4088H7.05295C6.60607 86.3666 9.54247 88.8564 14.5218 88.8564C18.416 88.8564 21.0332 87.3242 21.0332 85.026C21.0332 78.6422 0.477673 83.2385 0.477673 71.3009C0.477673 64.9169 6.41455 61.0231 14.139 61.0231C22.693 61.0231 28.8853 65.8111 27.5449 73.0246H20.4589C21.3529 69.3859 18.4798 66.8962 14.0749 66.8962C10.3724 66.8962 7.94647 68.556 7.94647 70.854C7.94647 77.3016 28.5663 72.3862 28.5663 84.5155C28.5663 90.9631 22.7569 94.7294 14.4582 94.7294C5.45695 94.7294 -0.480167 90.1332 0.0305533 82.4088ZM28.9501 61.9171H36.6745L43.3774 86.3671L50.0804 61.9171H57.8048L64.3165 86.0479L71.211 61.9171H78.8074L68.8489 93.8362H60.3586L53.847 71.429L47.463 93.8362H38.9086L28.9501 61.9171ZM81.2302 52.6601C81.2302 50.0429 83.2731 48 85.8903 48C88.5078 48 90.5506 50.0429 90.5506 52.6601C90.5506 55.2775 88.5078 57.3204 85.8903 57.3204C83.2731 57.3204 81.2302 55.2775 81.2302 52.6601ZM82.1878 61.9166H89.4654V93.8357H82.1878V61.9166Z" fill="black"/>
</g>
</svg>
