<svg width="336" height="144" viewBox="0 0 336 144" fill="none" xmlns="http://www.w3.org/2000/svg">
<path d="M280.581 34H324.29L302.462 69.7383L280.581 34Z" fill="#EF8214"/>
<path d="M38.696 66.6124C39.6859 66.1435 40.9362 65.9351 42.5512 65.9351C44.2183 65.9351 46.198 66.404 48.2818 67.2896C50.3657 68.2795 52.2412 69.5298 53.5957 71.4053L66.9845 57.7038C63.6503 54.6301 59.7952 52.2858 55.367 50.6187C50.9387 48.9516 46.7189 48.1702 42.4991 48.1702C39.3733 48.1702 36.1954 48.5869 32.9654 49.3684C29.7354 50.1498 26.8701 51.4522 24.3174 53.2235C21.7646 54.9948 19.5766 57.235 17.9095 60.1003C16.3466 62.9656 15.5651 66.404 15.5651 70.3112C15.5651 73.1766 16.034 75.6251 16.9196 77.6048C17.8053 79.6886 19.1077 81.3557 20.5664 82.8144C22.1293 84.2732 23.9006 85.4714 25.8803 86.4612C27.8599 87.451 29.8917 88.3367 32.1839 89.0139C34.4762 89.6912 36.2996 90.3685 37.8104 90.8894C39.2691 91.4625 40.4673 91.9834 41.2488 92.3481C42.1344 92.817 42.7075 93.2338 43.0201 93.6505C43.3326 94.0673 43.4889 94.6404 43.4889 95.2134C43.4889 96.4117 43.0201 97.1931 42.0302 97.5578C41.0404 97.9225 39.9464 98.1309 38.696 98.1309C36.0391 98.1309 33.4864 97.5578 30.9336 96.2554C28.4851 94.953 26.4012 93.4943 24.9425 91.9314L11.71 106.466C13.3771 107.925 15.1483 109.227 17.2322 110.426C19.3161 111.624 21.452 112.614 23.8485 113.499C26.2449 114.385 28.5893 115.062 31.142 115.479C33.5906 115.948 36.1433 116.156 38.8002 116.156C42.0302 116.156 45.3123 115.687 48.4381 114.802C51.5639 113.812 54.4292 112.457 56.8778 110.582C59.3263 108.706 61.4102 106.258 62.9731 103.393C64.536 100.527 65.3174 97.1931 65.3174 93.2338C65.3174 89.8996 64.6402 87.1385 63.2336 84.8462C61.879 82.6061 60.1078 80.7306 57.9197 79.1156C55.6795 77.6569 53.2831 76.3544 50.7304 75.3646C48.1776 74.3748 45.8333 73.5933 43.4368 72.8119C41.1967 72.1346 39.5817 71.4574 38.5918 71.0406C37.602 70.5717 37.1331 69.8424 37.1331 68.8525C37.1852 67.8627 37.7062 67.0813 38.696 66.6124Z" fill="#0071B9"/>
<path d="M173.418 86.774C173.418 89.8477 172.637 92.2963 171.178 93.9634C169.72 95.7347 167.636 96.5161 164.875 96.5161C162.113 96.5161 160.03 95.6305 158.571 93.9634C157.112 92.1921 156.331 89.8477 156.331 86.774V50.0459H134.763V89.1184C134.763 92.9735 135.336 96.5161 136.534 99.7461C137.732 102.976 139.608 105.946 142.056 108.29C144.505 110.738 147.683 112.614 151.329 114.021C155.08 115.375 159.404 116.104 164.406 116.104C169.407 116.104 173.835 115.427 177.586 114.021C181.337 112.614 184.463 110.791 187.016 108.29C189.568 105.841 191.444 102.976 192.798 99.7461C194.101 96.5161 194.778 92.8694 194.778 89.1184V50.0459H173.314V86.774H173.418Z" fill="#0071B9"/>
<path d="M119.29 54.6825C116.841 53.0154 113.976 51.8172 110.85 51.1399C107.725 50.4627 104.442 50.0459 101.212 50.0459H73.6533V114.333H95.1171V93.6508H101.212C104.547 93.6508 107.829 93.234 110.955 92.4526C114.08 91.6711 116.946 90.3687 119.394 88.5974C121.843 86.8261 123.822 84.586 125.281 81.8249C126.74 79.0637 127.521 75.6254 127.521 71.666C127.521 67.5504 126.74 64.0078 125.281 61.2467C123.822 58.5377 121.739 56.3496 119.29 54.6825ZM104.234 75.9379C102.88 76.7194 101.369 77.1362 99.7016 77.1362H95.1692V66.8731H99.7016C100.483 66.8731 101.265 66.9773 102.046 67.0815C102.827 67.2899 103.505 67.4983 104.234 67.8629C104.807 68.2797 105.432 68.7486 105.693 69.3217C106.11 69.8947 106.266 70.7804 106.266 71.7702C106.214 73.7499 105.484 75.1565 104.234 75.9379Z" fill="#0071B9"/>
<path d="M245.05 71.8223H227.546V50.0459H205.978V114.333H227.65V89.8998H245.154V114.333H266.826V50.0459H245.05V71.8223Z" fill="#0071B9"/>
<path d="M300.586 95.7347V79.0116L283.446 50.0459H278.705V114.333H321.841V95.7347H300.586Z" fill="#0071B9"/>
<path d="M150.861 45.8257C152.215 47.1281 153.934 47.8053 155.862 47.8053C156.747 47.8053 157.633 47.5969 158.519 47.3365C159.3 46.9197 160.082 46.555 160.707 45.8778C161.28 45.3047 161.801 44.5232 162.166 43.6897C162.582 42.9082 162.739 42.0226 162.739 41.0328C162.739 40.1471 162.53 39.2615 162.166 38.3758C161.749 37.5944 161.28 36.8129 160.707 36.1878C160.134 35.5626 159.352 35.0937 158.519 34.7291C157.737 34.3123 156.852 34.156 155.862 34.156C154.872 34.156 153.986 34.3644 153.101 34.7291C152.319 35.1458 151.538 35.6147 150.861 36.1878C150.183 36.7608 149.662 37.5423 149.298 38.3758C148.881 39.1573 148.725 40.0429 148.725 41.0328C148.829 42.8561 149.506 44.4191 150.861 45.8257ZM168.313 45.8257C169.667 47.1281 171.387 47.8053 173.314 47.8053C174.2 47.8053 175.086 47.5969 175.971 47.3365C176.753 46.9197 177.534 46.555 178.159 45.8778C178.732 45.3047 179.253 44.5232 179.618 43.6897C180.035 42.9082 180.191 42.0226 180.191 41.0328C180.191 40.1471 179.983 39.2615 179.618 38.3758C179.201 37.5944 178.732 36.8129 178.159 36.1878C177.586 35.5626 176.805 35.0937 175.971 34.7291C175.19 34.3123 174.304 34.156 173.314 34.156C172.324 34.156 171.439 34.3644 170.553 34.7291C169.667 35.0937 168.99 35.6147 168.313 36.1878C167.636 36.7608 167.115 37.5423 166.75 38.3758C166.385 39.2094 166.177 40.0429 166.177 41.0328C166.229 42.8561 166.906 44.4191 168.313 45.8257Z" fill="#0071B9"/>
</svg>
