<svg width="336" height="144" viewBox="0 0 336 144" fill="none" xmlns="http://www.w3.org/2000/svg">
<g clip-path="url(#clip0_605_152)">
<path d="M58.8063 70.4116C58.4448 70.8596 58.5534 71.262 58.5528 71.6356C58.544 75.6582 58.5414 79.6815 58.5508 83.7041C58.5541 85.2104 58.7258 85.3767 60.1885 85.4484C60.4306 85.4605 60.6734 85.4559 60.9155 85.4612C62.6954 85.4968 63.3413 86.105 63.4184 87.8816C63.4372 88.3095 63.3741 88.7541 63.2729 89.1726C62.9241 90.6105 62.6612 90.8057 61.1838 90.8311C60.554 90.8419 59.9236 90.8405 59.2945 90.864C58.9163 90.8781 58.6473 91.0605 58.593 91.4636C58.5387 91.8707 58.5742 92.2637 59.0202 92.4354C59.3804 92.5742 59.762 92.6573 60.1349 92.7613C64.7262 94.0402 68.4879 96.515 71.3114 100.399C76.2219 107.153 75.4949 116.497 69.8413 122.636C67.1754 125.53 63.9536 127.487 60.1281 128.447C58.5816 128.835 58.5856 128.853 58.5481 130.493C58.5139 131.967 58.3261 132.23 56.8956 132.598C55.5885 132.934 54.3048 132.801 53.0433 132.329C52.372 132.079 52.0125 131.641 52.0239 130.915C52.0259 130.769 52.0185 130.625 52.0132 130.479C51.9548 128.857 51.9562 128.852 50.4378 128.433C45.4528 127.055 41.5241 124.245 38.8488 119.791C33.6117 111.071 36.6196 99.8528 45.5085 94.8705C47.0792 93.9906 48.7169 93.2697 50.4801 92.8653C50.7161 92.8109 50.9535 92.7613 51.1876 92.7003C51.814 92.5373 52.0434 92.1101 51.9549 91.4958C51.873 90.9271 51.4378 90.856 50.9797 90.8466C50.35 90.8338 49.7189 90.8526 49.0898 90.8238C48.0375 90.7755 47.7069 90.5367 47.4366 89.5408C47.2985 89.0318 47.2119 88.4906 47.2146 87.9648C47.2247 85.9219 47.8672 85.2976 49.8993 85.2708C52.0025 85.2433 52.0072 85.2432 52.0092 83.183C52.0125 79.4508 52.0159 75.7192 52.0031 71.987C52.0018 71.5209 52.1366 71.024 51.8361 70.5813C51.3647 70.4915 51.1252 70.8637 50.8462 71.0924C47.6573 73.7006 44.4763 76.3181 41.3048 78.9471C40.3894 79.7063 40.4061 79.7264 41.1995 80.6466C41.6106 81.1241 42.0056 81.6156 42.4355 82.0757C42.9124 82.5854 42.8788 83.0958 42.5536 83.6645C41.901 84.8066 40.9735 85.6027 39.7321 86.05C39.103 86.2767 38.6021 86.1775 38.195 85.6295C37.7034 84.9689 37.195 84.3197 36.6994 83.6618C36.4459 83.3251 36.1776 83.0502 35.7484 83.4036C35.3836 83.7041 34.8913 83.9536 35.1763 84.5732C35.3386 84.9253 35.5123 85.2721 35.6746 85.6242C38.9602 92.7499 37.4385 101.366 31.8962 106.722C29.0539 109.469 25.6423 111.088 21.6975 111.531C16.3094 112.137 11.5269 110.711 7.40508 107.184C6.79008 106.658 6.33672 106.659 5.78946 107.179C5.61509 107.345 5.40651 107.476 5.21269 107.621C3.91564 108.598 3.52666 108.602 2.30405 107.596C1.42951 106.876 0.756842 106.005 0.32628 104.944C0.0291784 104.211 0.169342 103.667 0.7897 103.155C1.33696 102.703 2.19406 102.43 2.2913 101.662C2.38184 100.947 1.81782 100.315 1.55559 99.6422C-0.874202 93.3991 -0.546919 87.3813 3.17054 81.727C8.3849 73.7951 18.8016 71.4994 27.2123 76.3409C28.2645 76.9465 29.2672 77.6252 30.2135 78.3858C30.6273 78.7184 31.0303 78.9062 31.5038 78.4864C32.0256 78.0236 31.7171 77.6219 31.4233 77.2235C31.0203 76.6776 30.6333 76.1163 30.188 75.6066C29.6421 74.9815 29.7292 74.4121 30.1504 73.7656C30.8184 72.7402 31.7573 72.1191 32.8854 71.7114C33.5312 71.478 34.0127 71.6416 34.4245 72.154C34.8799 72.7207 35.3601 73.268 35.798 73.8474C36.2172 74.4021 36.6417 74.394 37.1454 73.9728C37.9636 73.2888 38.7919 72.6174 39.6228 71.9495C42.683 69.4902 45.7466 67.0349 48.8081 64.5783C49.0348 64.3965 49.2702 64.2235 49.4835 64.027C50.1655 63.3992 50.1789 63.3422 49.4177 62.7058C46.1456 59.9702 42.8614 57.2493 39.5832 54.5211C38.5403 53.6532 37.5116 52.7673 36.4553 51.9156C35.7283 51.3294 35.6458 51.3549 35.0429 52.037C33.5869 53.6854 33.5869 53.6848 35.2722 55.0388C35.4989 55.2206 35.7209 55.4084 35.9436 55.5961C36.3547 55.9422 36.3647 56.3379 36.0562 56.7457C35.5881 57.3633 35.1133 57.977 34.6251 58.5786C34.3226 58.9515 33.9738 58.928 33.609 58.6443C33.0356 58.1976 32.4494 57.7671 31.8767 57.3197C31.4589 56.9931 31.1484 57.0381 30.7587 57.4358C29.2383 58.989 29.2236 58.9823 30.8506 60.392C31.0337 60.551 31.2101 60.718 31.4012 60.8668C31.87 61.233 31.931 61.6388 31.5642 62.117C31.151 62.6555 30.7406 63.196 30.3496 63.75C29.9238 64.3529 29.4556 64.416 28.8889 63.9438C27.958 63.1679 27.0191 62.4027 26.0809 61.6361C24.8046 60.5939 23.5129 59.5698 22.2528 58.5081C21.5533 57.9186 21.5647 57.7027 22.3775 57.2379C24.0602 56.2755 25.7684 55.3587 27.4725 54.4352C28.8494 53.6895 28.8735 53.5533 27.5047 52.5004C26.9708 52.0893 26.5134 52.2985 26.0312 52.5654C24.5887 53.3615 23.1535 54.1717 21.6941 54.9362C21.2521 55.1683 20.7371 55.7538 20.2783 55.3379C19.8518 54.9503 20.3152 54.3427 20.4594 53.8518C20.9094 52.3173 21.3876 50.7915 21.8577 49.2631C22.0355 48.6843 22.1535 48.1049 21.5881 47.6703C21.2206 47.3873 20.9456 46.8038 20.4098 46.9628C19.9551 47.0976 19.9826 47.677 19.8565 48.0787C19.3173 49.7883 18.8062 51.5071 18.2724 53.218C17.8331 54.6264 17.6594 54.7015 16.5515 53.8236C14.4249 52.1376 12.3163 50.4281 10.2185 48.7058C9.40697 48.0398 9.39089 47.8936 10.081 47.0553C11.7617 45.0152 11.4284 44.7342 13.5597 46.5664C14.3645 47.2579 14.5335 47.2203 15.2518 46.494C15.3879 46.3565 15.5126 46.2069 15.6367 46.0581C16.5247 44.9957 16.5213 44.9488 15.4691 43.9616C13.5604 42.1702 13.4376 42.743 15.2692 40.5157C15.9975 39.6305 16.0934 39.6419 17.0511 40.3125C17.2497 40.4513 17.4294 40.619 17.6339 40.7464C18.0732 41.0194 18.4475 41.6223 19.0054 41.4184C19.7613 41.1421 20.1187 40.3702 20.5271 39.7224C20.7753 39.3287 20.3662 39.1234 20.1107 38.9202C18.8599 37.9236 17.6044 36.9324 16.3483 35.9425C14.4 34.4087 14.3511 34.1036 15.7212 32.0507C16.2376 31.2774 16.86 30.6014 17.5863 30.0273C18.4756 29.3238 18.7171 29.3178 19.6117 30.0434C21.8329 31.8435 24.0401 33.6623 26.2526 35.4737C34.3903 42.136 42.5267 48.799 50.6692 55.4553C50.9931 55.7202 51.2721 56.0978 51.7744 56.0784C52.1359 55.7745 51.9991 55.3581 51.9998 54.9946C52.0105 50.1477 52.0125 45.3009 52.0038 40.454C52.0011 38.884 51.767 38.6848 50.2239 38.8082C49.3225 38.88 49.0972 39.0155 49.134 39.9765C49.232 42.5706 48.7183 42.3097 46.3113 42.2849C45.6768 42.2782 45.3073 41.9925 45.2905 41.3279C45.2845 41.0858 45.2758 40.8437 45.2704 40.6016C45.2315 38.9095 44.4207 38.3455 42.7836 38.8505C42.3275 38.9913 42.1975 39.3173 42.178 39.7297C42.1525 40.2622 42.1512 40.7954 42.1237 41.3272C42.0902 41.9684 41.7394 42.2313 41.0989 42.2984C38.5061 42.5713 38.2674 42.3741 38.2667 39.7747C38.2661 37.5454 38.252 35.3155 38.2748 33.0862C38.2875 31.7972 38.4505 31.6805 39.6134 32.1486C41.2766 32.8179 42.9191 33.5382 44.5716 34.233C44.8834 34.3645 45.1993 34.4885 45.5199 34.5965C45.77 34.6803 45.9927 34.6428 46.1194 34.3671C46.5104 33.5181 46.0739 32.3558 45.1698 31.9669C43.7011 31.3358 42.2162 30.7402 40.7388 30.1279C40.211 29.9093 39.6382 29.7684 39.2318 29.3687C39.327 28.8114 39.773 28.7819 40.109 28.6451C41.7696 27.9698 43.4402 27.3185 45.1041 26.6506C45.601 26.4514 46.1295 26.2616 46.1536 25.5943C46.1711 25.1181 46.3428 24.5655 45.9424 24.2114C45.5481 23.8633 45.1108 24.2382 44.7252 24.3858C43.0056 25.0443 41.3041 25.7505 39.5826 26.4024C38.4632 26.8263 38.2868 26.7136 38.2768 25.5467C38.2533 22.8325 38.2533 20.1184 38.2768 17.4042C38.2868 16.2252 38.4545 16.0937 39.6376 16.0273C39.7341 16.022 39.8314 16.0247 39.9286 16.0226C42.0237 15.9804 42.0895 16.0522 42.1612 18.1956C42.1787 18.7073 41.9902 19.3746 42.5891 19.6281C43.3101 19.9339 44.1115 19.8736 44.866 19.6502C45.1812 19.557 45.2409 19.2297 45.251 18.9313C45.2671 18.4471 45.259 17.9622 45.2758 17.478C45.2858 17.1883 45.2302 16.8415 45.3663 16.6216C45.9907 15.6136 47.0168 16.1253 47.8786 16.0475C48.5399 15.9871 49.016 16.2808 49.0623 17.0166C49.0958 17.5484 49.0817 18.0829 49.1206 18.6141C49.189 19.5664 49.3366 19.7099 50.2333 19.7844C51.753 19.9098 51.9944 19.6932 52.0065 18.1231C52.0199 16.3781 51.9924 14.633 52.0219 12.8887C52.0413 11.7298 52.1835 11.5681 53.2814 11.2764C54.7173 10.8941 56.1518 10.9069 57.585 11.324C58.2349 11.5131 58.5568 11.9055 58.5387 12.5882C58.5259 13.0724 58.5454 13.5573 58.5454 14.0422C58.5461 27.5164 58.5447 40.9899 58.5501 54.4641C58.5501 55.0274 58.4562 55.6102 58.6789 56.1374C59.2818 56.2212 59.5299 55.7927 59.8471 55.5345C66.5356 50.086 73.2167 44.6282 79.8978 39.1711C83.5763 36.1665 87.2489 33.1546 90.9308 30.1547C92.0327 29.2567 92.1581 29.2735 93.2379 30.254C94.1795 31.1091 94.9722 32.0809 95.5382 33.2264C96.0962 34.3544 96.07 34.5194 95.0895 35.2953C93.6449 36.4381 92.1769 37.5501 90.7356 38.6969C89.8135 39.4306 89.8168 39.5339 90.5371 40.4312C90.7189 40.6579 90.9174 40.8712 91.0978 41.0999C91.466 41.566 91.8711 41.629 92.3472 41.2555C92.7282 40.9564 93.1185 40.668 93.5148 40.389C94.5054 39.6915 94.5691 39.7022 95.4389 40.6123C97.0653 42.3138 97.0653 42.3144 95.331 43.8549C95.1499 44.0159 94.9708 44.1802 94.779 44.3278C94.2385 44.7449 94.2834 45.1574 94.6664 45.6905C95.9165 47.4329 95.9004 47.4443 97.6011 46.1144C97.7158 46.0245 97.8278 45.932 97.9439 45.8441C98.9143 45.1084 98.9619 45.0903 99.6929 45.9849C101.472 48.1626 101.575 47.795 99.3529 49.6011C97.6984 50.9465 96.0331 52.2784 94.3699 53.6137C94.1057 53.8256 93.8394 54.0382 93.5564 54.2233C93.1399 54.4963 92.8066 54.3863 92.6403 53.9229C92.3781 53.1938 92.1353 52.4575 91.9046 51.7184C91.472 50.3308 91.0696 48.9338 90.6243 47.5503C90.3869 46.8139 90.2259 46.777 89.6042 47.1881C88.56 47.8789 88.4547 48.1498 88.8189 49.3503C89.3252 51.0196 89.849 52.6835 90.354 54.3528C90.4613 54.7082 90.6652 55.0797 90.289 55.5311C89.2159 55.173 88.2468 54.5318 87.2267 54.0074C86.4515 53.6083 85.7023 53.159 84.9297 52.7539C83.6293 52.0705 83.4858 52.094 82.3846 53.0839C82.2451 53.2093 82.1358 53.3696 82.0285 53.4956C82.0808 54.0308 82.5288 54.1086 82.8427 54.283C84.5361 55.226 86.2503 56.1327 87.9464 57.0709C89.1026 57.7107 89.1334 57.8703 88.161 58.6718C86.029 60.4282 83.8795 62.1646 81.7186 63.8848C80.9386 64.5052 80.773 64.475 80.1614 63.7453C79.757 63.2631 79.4169 62.7279 79.0206 62.239C78.5424 61.6482 78.692 61.1928 79.2526 60.7696C79.7167 60.4195 80.1647 60.048 80.6107 59.6751C81.0567 59.3022 81.1311 58.8803 80.7355 58.4176C80.6724 58.3438 80.6107 58.2694 80.551 58.1929C79.4592 56.8134 79.4304 56.8094 78.0703 57.8663C76.4251 59.1446 76.4251 59.1446 75.1569 57.4908C74.0818 56.0898 74.0818 56.0898 75.4151 55.0053C77.0415 53.6821 77.0415 53.6821 75.7142 52.1577C75.0087 51.3469 74.9497 51.3214 74.0879 52.0329C70.2014 55.242 66.3257 58.4645 62.4466 61.6824C61.9617 62.0848 61.4742 62.4838 60.996 62.8942C60.6271 63.2115 60.6097 63.5408 60.9993 63.8647C61.2227 64.0505 61.4379 64.247 61.6646 64.4287C65.5162 67.5278 69.3664 70.6283 73.2227 73.7213C74.2703 74.5617 74.2844 74.5503 75.1643 73.4752C75.4406 73.1379 75.7048 72.7898 75.9879 72.4585C76.8805 71.4149 77.2628 71.3351 78.474 71.9843C78.8127 72.1654 79.1373 72.3921 79.423 72.6483C80.9943 74.0553 81.0399 74.7783 79.6919 76.4006C79.4444 76.6991 79.1923 76.9941 78.9555 77.3006C78.6966 77.636 78.5672 77.9881 78.9555 78.3227C79.2962 78.6165 79.6644 78.8807 80.1272 78.585C80.4933 78.3502 80.8327 78.0732 81.1861 77.8191C84.6145 75.3577 88.3541 73.7871 92.6537 73.8394C99.1946 73.9192 104.253 76.7943 107.679 82.2735C111.26 88.0003 111.371 94.0678 108.709 100.223C108.574 100.534 108.419 100.837 108.26 101.136C108.011 101.605 108.146 101.971 108.539 102.279C108.959 102.608 109.371 102.947 109.8 103.262C110.34 103.66 110.486 104.164 110.287 104.796C109.792 106.363 108.768 107.469 107.336 108.229C106.723 108.555 106.243 108.302 105.738 107.938C105.161 107.522 104.73 106.721 103.958 106.802C103.296 106.871 102.862 107.553 102.322 107.957C95.4859 113.063 85.7915 113.021 79.3284 107.36C75.5774 104.074 73.5668 99.8824 73.2053 94.9121C72.9572 91.5032 73.6352 88.2565 75.0409 85.1574C75.3259 84.5297 75.4929 83.9978 74.841 83.4888C74.4534 83.1856 74.1717 83.1696 73.8726 83.578C73.4139 84.203 72.9551 84.8295 72.4669 85.4317C71.7748 86.2868 71.4931 86.3451 70.4683 85.9313C69.8292 85.6731 69.2752 85.2902 68.8085 84.7825C67.5952 83.464 67.5979 82.8268 68.7219 81.4352C70.2745 79.5125 70.3584 79.8371 68.4202 78.2436C65.5383 75.8728 62.674 73.4806 59.8015 71.0991C59.5091 70.8523 59.2509 70.5525 58.8063 70.4116ZM44.1061 109.707C44.8412 109.696 45.082 110.044 45.3958 110.249C47.4883 111.618 49.9865 111.294 51.5471 109.443C53.0051 107.712 52.9662 104.836 51.4505 103.147C50.3962 101.972 49.0784 101.556 47.5225 101.774C44.8157 102.154 43.1699 103.816 42.3061 106.259C39.9494 112.923 43.1411 120.12 49.7544 122.781C51.7657 123.59 51.8489 123.519 52.0179 121.335C52.095 120.335 52.2674 120.108 53.2848 119.857C54.4229 119.576 55.563 119.499 56.7366 119.737C58.3764 120.07 58.5011 120.162 58.5481 121.77C58.595 123.38 58.8271 123.536 60.3682 122.989C60.5507 122.924 60.7304 122.852 60.9081 122.775C65.7972 120.677 70.6005 114.519 68.7387 107.24C68.0298 104.468 66.3834 102.197 63.2387 101.792C60.4434 101.432 58.2402 103.179 58.0075 106.11C57.8043 108.669 59.8981 111.002 62.4332 111.078C63.6686 111.115 64.6766 110.645 65.6275 109.904C66.2714 109.402 66.5772 109.553 66.6054 110.373C66.6483 111.631 66.6121 112.892 66.6094 114.151C66.608 114.749 66.325 115.165 65.7764 115.391C65.374 115.557 64.9757 115.757 64.5552 115.848C61.2904 116.556 58.2791 116.223 55.8889 113.593C55.5013 113.165 55.2162 113.111 54.8414 113.554C54.6542 113.776 54.443 113.978 54.2297 114.175C51.9649 116.262 47.6828 116.841 44.9438 115.444C44.4864 115.21 44.1108 114.931 44.1088 114.366C44.1028 112.827 44.1061 111.289 44.1061 109.707ZM91.1487 106.467C94.2653 106.553 96.9426 105.484 98.6044 104.365C99.6688 103.649 99.6762 103.492 98.7151 102.723C98.4502 102.511 98.1873 102.295 97.907 102.106C97.3436 101.725 97.1807 101.248 97.4409 100.604C97.9385 99.3727 98.5937 98.258 99.6453 97.411C100.822 96.4633 101.032 96.4593 102.277 97.3848C102.471 97.5297 102.658 97.6853 102.859 97.8201C103.606 98.3197 103.786 98.2781 104.164 97.4693C104.326 97.1199 104.449 96.7484 104.559 96.3775C105.931 91.7734 104.805 87.6643 101.998 83.9348C100.135 81.4594 97.6427 79.9705 94.5322 79.6385C92.4237 79.4132 90.6008 80.0255 89.2186 81.6995C87.9832 83.1951 87.8719 85.2379 88.9121 86.8481C90.0797 88.6562 92.3338 89.6025 94.1727 89.0566C96.2887 88.4289 97.3838 87.0003 97.6266 84.5524C97.7138 83.6759 97.8882 83.5599 98.5609 84.0615C99.5695 84.8147 100.527 85.6376 101.518 86.4149C102.005 86.7972 102.096 87.2479 101.936 87.8293C100.822 91.8767 97.5334 94.2227 94.769 94.3944C93.7355 94.4588 93.6624 94.5426 93.8327 95.5506C94.3693 98.7369 91.7832 102.598 88.9758 103.998C88.5137 104.228 88.0563 104.35 87.6104 104.01C86.5319 103.188 85.4515 102.368 84.4019 101.509C83.9767 101.162 84.1216 100.836 84.6092 100.659C85.0183 100.51 85.4502 100.413 85.8418 100.23C87.9028 99.2674 88.9316 97.1032 88.3843 94.9275C87.7928 92.5749 85.821 91.2107 83.2484 91.3744C81.1271 91.5098 79.4095 93.1832 79.1285 95.3957C78.9267 96.9844 79.2037 98.4874 79.9783 99.8897C82.4067 104.287 86.2167 106.335 91.1487 106.467ZM12.6617 83.5465C12.9648 84.1856 12.8367 84.6806 12.9118 85.144C13.27 87.3672 15.2471 89.1907 17.365 89.2343C19.599 89.2806 21.6988 87.5416 22.1173 85.2982C22.6833 82.2648 20.0148 79.3911 16.7306 79.5849C14.4577 79.719 12.374 80.4595 10.5665 81.8913C6.21868 85.3351 4.36229 91.1846 5.92962 96.5123C6.48962 98.417 6.66131 98.4733 8.28229 97.2862C8.36075 97.2292 8.44258 97.1756 8.51233 97.1092C9.05825 96.5948 9.60751 96.6223 10.2171 97.0253C11.5652 97.916 12.4451 99.154 13.0037 100.645C13.1955 101.156 13.0909 101.595 12.6543 101.94C12.2365 102.27 11.8247 102.609 11.3988 102.928C10.8455 103.344 10.9542 103.716 11.4491 104.077C11.6054 104.191 11.7623 104.305 11.9267 104.407C17.1692 107.678 24.8462 107.355 29.4563 101.51C30.8479 99.7455 31.6272 97.7396 31.318 95.4258C31.0062 93.0966 29.3242 91.4783 27.0936 91.3684C24.6691 91.249 22.6015 92.6788 22.1689 94.774C21.6451 97.3077 22.7101 99.4491 24.9569 100.367C25.2244 100.476 25.5148 100.531 25.7824 100.64C26.3927 100.89 26.4625 101.142 25.9642 101.564C25.152 102.252 24.3023 102.899 23.4512 103.539C22.2736 104.425 21.9637 104.483 20.7458 103.59C18.0236 101.596 16.2068 99.097 16.6494 95.4902C16.7172 94.9403 16.5334 94.6653 16.0002 94.5808C15.7138 94.5359 15.4302 94.4661 15.1472 94.4018C11.5417 93.5849 9.60214 91.0947 8.49287 87.7729C8.36544 87.3913 8.3071 86.9729 8.63841 86.6845C9.90193 85.5866 11.2144 84.5504 12.6617 83.5465Z" fill="black"/>
<path d="M253.174 67.8544C253.996 68.014 254.786 68.1575 255.57 68.3218C260.417 69.3365 264.783 71.2613 268.245 74.9399C271.212 78.0926 272.888 81.8624 273.346 86.1123C273.798 90.312 273.323 94.4352 271.529 98.3317C269.175 103.448 265.145 106.763 260.077 108.944C256.619 110.431 252.989 111.184 249.248 111.55C246.729 111.797 244.216 111.762 241.699 111.765C231.763 111.777 221.828 111.771 211.893 111.769C209.623 111.768 209.622 111.765 209.619 109.545C209.618 109.012 209.6 108.477 209.632 107.946C209.692 106.934 209.832 106.762 210.852 106.74C212.595 106.702 214.341 106.726 216.086 106.722C216.813 106.72 217.54 106.71 218.267 106.71C218.913 106.709 219.26 106.4 219.278 105.746C219.288 105.358 219.299 104.971 219.299 104.584C219.299 81.906 219.299 59.2284 219.299 36.5514C219.299 36.5031 219.299 36.4542 219.299 36.4059C219.288 34.4724 219.284 34.4657 217.358 34.4616C215.564 34.4576 213.771 34.4677 211.978 34.4583C210.256 34.4489 210.222 34.408 210.205 32.6308C210.199 32.001 210.186 31.3699 210.213 30.7415C210.26 29.6644 210.41 29.5243 211.516 29.4505C211.805 29.431 212.097 29.4404 212.388 29.4404C223.679 29.4404 234.972 29.4015 246.264 29.4599C250.739 29.4834 255.164 29.9783 259.305 31.8984C265.643 34.8379 269.461 39.6552 270.27 46.681C270.974 52.7894 268.809 57.7838 264.273 61.8305C261.398 64.3951 258.007 66.0154 254.398 67.2407C254.033 67.3648 253.67 67.4949 253.308 67.6283C253.275 67.6398 253.261 67.7021 253.174 67.8544ZM233.511 88.4623C233.511 91.6124 233.511 94.7618 233.511 97.9119C233.512 100.383 233.497 102.855 233.521 105.326C233.533 106.507 233.684 106.717 234.705 106.702C237.995 106.653 241.292 106.937 244.574 106.447C251.004 105.489 255.391 102.053 257.143 95.7356C258.542 90.6923 258.468 85.5497 256.954 80.5258C255.188 74.6676 250.823 71.1506 244.472 70.712C241.32 70.4947 238.176 70.6007 235.029 70.5363C234.883 70.5336 234.738 70.5464 234.593 70.5417C233.865 70.5182 233.523 70.8831 233.522 71.5973C233.521 71.9849 233.511 72.3726 233.511 72.7602C233.511 77.9947 233.511 83.2285 233.511 88.4623ZM233.512 50.0323C233.512 54.7269 233.504 59.4222 233.517 64.1168C233.521 65.5956 233.625 65.6928 235.084 65.7009C237.456 65.7143 239.83 65.7673 242.2 65.6855C246.495 65.5379 250.062 63.8297 252.296 60.0955C256.067 53.7954 256.13 47.2055 252.987 40.6693C251.317 37.1966 248.387 35.1564 244.462 34.6474C243.156 34.4777 241.858 34.4684 240.554 34.463C238.618 34.4543 236.681 34.4435 234.745 34.4724C233.711 34.4878 233.589 34.6374 233.522 35.6574C233.496 36.0431 233.511 36.4314 233.511 36.819C233.511 41.2232 233.511 45.6274 233.512 50.0323Z" fill="#E60000"/>
<path d="M189.572 61.2732C189.572 52.9878 189.573 44.7019 189.57 36.4159C189.57 34.4676 189.564 34.465 187.667 34.4609C185.825 34.4562 183.984 34.477 182.143 34.4482C181.004 34.4307 180.878 34.298 180.832 33.2008C180.798 32.3785 180.8 31.5529 180.83 30.73C180.869 29.6577 181.023 29.5222 182.139 29.4491C182.429 29.4303 182.72 29.439 183.011 29.439C189.456 29.4384 195.901 29.4364 202.347 29.4397C204.53 29.4411 204.53 29.4477 204.535 31.6086C204.535 31.948 204.537 32.2873 204.534 32.626C204.517 34.3999 204.479 34.4421 202.768 34.4569C201.702 34.4656 200.636 34.4589 199.57 34.4589C199.134 34.4589 198.697 34.4549 198.261 34.4603C196.693 34.4784 196.645 34.5126 196.643 36.1134C196.637 44.5443 196.641 52.9751 196.639 61.4066C196.637 69.547 196.655 77.6875 196.616 85.8273C196.599 89.4233 196.146 92.9765 195.211 96.4585C194.617 98.669 193.786 100.783 192.611 102.752C190.051 107.042 186.264 109.731 181.539 111.163C178.273 112.154 174.906 112.541 171.508 112.641C166.551 112.787 161.629 112.522 156.812 111.212C153.594 110.336 150.637 108.964 148.063 106.795C145.434 104.582 143.638 101.804 142.437 98.6294C141.213 95.3895 140.659 92.0087 140.371 88.5588C140.085 85.121 140.155 81.6853 140.152 78.2475C140.138 64.3897 140.143 50.5319 140.148 36.6741C140.149 34.2336 140.101 34.4656 137.91 34.4596C136.214 34.4549 134.517 34.475 132.822 34.4502C131.631 34.4327 131.487 34.2892 131.445 33.1028C131.413 32.2323 131.443 31.3591 131.461 30.4873C131.475 29.8488 131.828 29.5108 132.459 29.4752C132.894 29.4504 133.33 29.439 133.766 29.439C143.362 29.437 152.957 29.4364 162.553 29.4384C164.86 29.439 164.865 29.4578 164.879 31.8065C164.9 34.9458 164.765 34.4214 162.162 34.4542C160.321 34.477 158.479 34.4428 156.638 34.467C155.518 34.4817 155.431 34.5977 155.385 35.7419C155.376 35.984 155.382 36.2261 155.382 36.4689C155.382 51.5868 155.356 66.7041 155.402 81.8221C155.412 85.3055 155.612 88.7922 156.23 92.2367C156.608 94.3419 157.129 96.4082 158.013 98.3605C160.302 103.417 164.197 106.18 169.776 106.442C172.294 106.56 174.816 106.575 177.299 106.017C182.954 104.748 186.412 101.181 188.058 95.7235C189.059 92.4051 189.509 88.9921 189.536 85.5462C189.597 77.4548 189.555 69.3626 189.555 61.2711C189.56 61.2731 189.566 61.2732 189.572 61.2732Z" fill="#E60000"/>
<path d="M284.057 90.8742C284.057 89.6624 284.044 88.4512 284.061 87.2393C284.077 85.9959 284.229 85.8476 285.504 85.8067C286.231 85.7833 286.958 85.794 287.685 85.8014C289.356 85.8195 289.486 85.8872 289.607 87.6054C289.736 89.4471 289.94 91.2733 290.347 93.072C291.174 96.719 292.58 100.084 295.21 102.838C297.832 105.586 301.115 106.987 304.807 107.57C307.173 107.943 309.537 107.987 311.891 107.511C316.614 106.557 319.99 103.932 321.74 99.3869C322.964 96.21 323.398 92.915 322.85 89.5383C322.395 86.7343 320.93 84.4963 318.756 82.7103C315.785 80.2684 312.284 78.8386 308.724 77.5409C304.991 76.1808 301.201 74.9682 297.692 73.0595C294.389 71.2629 291.325 69.1684 288.978 66.1625C286.019 62.372 284.441 58.0999 284.344 53.2698C284.277 49.8937 284.629 46.588 285.759 43.3977C287.936 37.2552 292.194 33.1085 298.21 30.7813C304.123 28.4944 310.242 27.9665 316.502 28.9725C320.78 29.66 324.938 30.7417 328.893 32.5424C329.289 32.7228 329.668 32.9435 330.068 33.1179C330.781 33.4297 331.029 33.9676 331.045 34.7321C331.096 37.056 331.208 39.3791 331.283 41.703C331.363 44.1717 331.249 46.6457 331.514 49.111C331.591 49.8307 331.571 50.565 331.537 51.29C331.493 52.2269 331.323 52.4181 330.425 52.4516C329.312 52.4932 328.196 52.4529 327.081 52.4623C326.375 52.4684 326.03 52.133 325.937 51.4342C325.773 50.1861 325.606 48.9353 325.364 47.7013C324.866 45.1709 324.134 42.7197 322.823 40.4676C320.214 35.9869 316.308 33.6973 311.15 33.5303C309.311 33.4713 307.47 33.4304 305.656 33.8851C300.358 35.2123 297.191 38.5576 296.191 43.9135C295.908 45.4325 295.712 46.9737 295.929 48.539C296.377 51.7742 298.16 54.1698 300.666 56.0933C303.822 58.5157 307.464 59.9891 311.169 61.313C314.089 62.3565 317.029 63.3464 319.862 64.618C323.425 66.2168 326.725 68.2006 329.476 71.0342C333.473 75.15 335.497 80.1303 335.914 85.7732C336.232 90.0768 335.687 94.2832 333.964 98.2937C331.652 103.676 327.732 107.464 322.447 109.859C318.333 111.724 313.979 112.565 309.47 112.683C302.62 112.861 295.945 111.895 289.449 109.716C288.16 109.284 286.924 108.725 285.701 108.134C284.972 107.782 284.681 107.244 284.625 106.415C284.455 103.85 284.376 101.284 284.38 98.7169C284.386 96.098 284.002 93.4952 284.057 90.8742Z" fill="#E60000"/>
</g>
<defs>
<clipPath id="clip0_605_152">
<rect width="336" height="144" fill="white"/>
</clipPath>
</defs>
</svg>
